<svg width="414" height="896" viewBox="0 0 414 896" fill="none" xmlns="http://www.w3.org/2000/svg">
<g clip-path="url(#clip0_1_27)">
<rect width="414" height="896" fill="white"/>
<rect x="34" y="253" width="343" height="131" rx="20" fill="#FFEFEF"/>
<path d="M55.5064 314.15C54.6664 314.15 53.9864 313.91 53.4664 313.43C52.9664 312.93 52.7164 312.27 52.7164 311.45V297.32H48.4864C47.6064 297.32 46.9464 297.14 46.5064 296.78C46.0864 296.4 45.8764 295.83 45.8764 295.07C45.8764 294.31 46.0864 293.75 46.5064 293.39C46.9464 293.03 47.6064 292.85 48.4864 292.85H62.5264C63.4064 292.85 64.0564 293.03 64.4764 293.39C64.9164 293.75 65.1364 294.31 65.1364 295.07C65.1364 295.83 64.9164 296.4 64.4764 296.78C64.0564 297.14 63.4064 297.32 62.5264 297.32H58.2964V311.45C58.2964 312.27 58.0364 312.93 57.5164 313.43C57.0164 313.91 56.3464 314.15 55.5064 314.15ZM73.4698 298.94C74.1498 298.88 74.6898 299.04 75.0898 299.42C75.4898 299.78 75.6898 300.32 75.6898 301.04C75.6898 301.84 75.4998 302.42 75.1198 302.78C74.7598 303.14 74.0998 303.37 73.1398 303.47L72.2398 303.56C71.2398 303.68 70.5198 304 70.0798 304.52C69.6598 305.02 69.4498 305.71 69.4498 306.59V311.72C69.4498 312.54 69.1898 313.16 68.6698 313.58C68.1698 313.98 67.5398 314.18 66.7798 314.18C66.0198 314.18 65.3798 313.98 64.8598 313.58C64.3598 313.16 64.1098 312.54 64.1098 311.72V301.34C64.1098 300.58 64.3598 299.99 64.8598 299.57C65.3798 299.15 65.9998 298.94 66.7198 298.94C67.4598 298.94 68.0498 299.14 68.4898 299.54C68.9498 299.94 69.1798 300.5 69.1798 301.22V301.79C69.4998 300.91 70.0198 300.23 70.7398 299.75C71.4798 299.27 72.2498 299.01 73.0498 298.97L73.4698 298.94ZM83.5775 298.88C85.8575 298.88 87.5375 299.43 88.6175 300.53C89.7175 301.61 90.2675 303.26 90.2675 305.48V311.75C90.2675 312.51 90.0375 313.11 89.5775 313.55C89.1375 313.97 88.5175 314.18 87.7175 314.18C87.0175 314.18 86.4375 313.98 85.9775 313.58C85.5375 313.18 85.2975 312.64 85.2575 311.96C84.9775 312.68 84.5075 313.24 83.8475 313.64C83.1875 314.04 82.3975 314.24 81.4775 314.24C80.4575 314.24 79.5375 314.04 78.7175 313.64C77.8975 313.22 77.2475 312.65 76.7675 311.93C76.3075 311.19 76.0775 310.36 76.0775 309.44C76.0775 308.38 76.3475 307.54 76.8875 306.92C77.4475 306.28 78.3275 305.82 79.5275 305.54C80.7275 305.26 82.3475 305.12 84.3875 305.12H85.1975V304.76C85.1975 304.06 85.0375 303.56 84.7175 303.26C84.3975 302.94 83.8575 302.78 83.0975 302.78C82.2775 302.78 81.0775 303.06 79.4975 303.62C79.0375 303.78 78.6475 303.86 78.3275 303.86C77.8275 303.86 77.4275 303.68 77.1275 303.32C76.8275 302.96 76.6775 302.49 76.6775 301.91C76.6775 301.47 76.7675 301.11 76.9475 300.83C77.1275 300.55 77.4175 300.3 77.8175 300.08C78.5175 299.72 79.3975 299.43 80.4575 299.21C81.5175 298.99 82.5575 298.88 83.5775 298.88ZM82.7375 310.67C83.4575 310.67 84.0475 310.42 84.5075 309.92C84.9675 309.4 85.1975 308.74 85.1975 307.94V307.58H84.7175C83.4375 307.58 82.5275 307.7 81.9875 307.94C81.4475 308.16 81.1775 308.54 81.1775 309.08C81.1775 309.54 81.3175 309.92 81.5975 310.22C81.8975 310.52 82.2775 310.67 82.7375 310.67ZM100.37 314.24C97.9702 314.24 96.0702 313.56 94.6702 312.2C93.2702 310.84 92.5702 308.99 92.5702 306.65C92.5702 305.11 92.9102 303.75 93.5902 302.57C94.2702 301.39 95.2202 300.48 96.4402 299.84C97.6802 299.2 99.0902 298.88 100.67 298.88C101.51 298.88 102.35 298.99 103.19 299.21C104.03 299.43 104.77 299.74 105.41 300.14C106.03 300.52 106.34 301.1 106.34 301.88C106.34 302.5 106.19 303.01 105.89 303.41C105.61 303.79 105.24 303.98 104.78 303.98C104.48 303.98 104.19 303.94 103.91 303.86C103.63 303.76 103.32 303.62 102.98 303.44C102.58 303.26 102.24 303.13 101.96 303.05C101.68 302.95 101.37 302.9 101.03 302.9C99.0502 302.9 98.0602 304.11 98.0602 306.53C98.0602 307.73 98.3102 308.65 98.8102 309.29C99.3302 309.91 100.07 310.22 101.03 310.22C101.37 310.22 101.68 310.18 101.96 310.1C102.26 310 102.59 309.86 102.95 309.68C103.35 309.5 103.67 309.37 103.91 309.29C104.17 309.19 104.45 309.14 104.75 309.14C105.21 309.14 105.58 309.34 105.86 309.74C106.16 310.12 106.31 310.62 106.31 311.24C106.31 311.62 106.23 311.97 106.07 312.29C105.91 312.59 105.69 312.82 105.41 312.98C104.03 313.82 102.35 314.24 100.37 314.24ZM122.99 309.86C123.51 310.36 123.77 310.94 123.77 311.6C123.77 312.26 123.53 312.85 123.05 313.37C122.59 313.89 122.03 314.15 121.37 314.15C120.81 314.15 120.25 313.9 119.69 313.4L113.6 307.61V311.66C113.6 312.48 113.34 313.1 112.82 313.52C112.32 313.94 111.69 314.15 110.93 314.15C110.17 314.15 109.53 313.94 109.01 313.52C108.51 313.1 108.26 312.48 108.26 311.66V295.19C108.26 294.37 108.51 293.75 109.01 293.33C109.53 292.91 110.17 292.7 110.93 292.7C111.69 292.7 112.32 292.91 112.82 293.33C113.34 293.75 113.6 294.37 113.6 295.19V305.36L119.15 299.72C119.65 299.2 120.23 298.94 120.89 298.94C121.53 298.94 122.09 299.19 122.57 299.69C123.07 300.17 123.32 300.72 123.32 301.34C123.32 301.96 123.06 302.53 122.54 303.05L119.27 306.29L122.99 309.86ZM153.087 298.88C154.707 298.88 155.957 299.37 156.837 300.35C157.717 301.31 158.157 302.94 158.157 305.24V311.72C158.157 312.54 157.897 313.16 157.377 313.58C156.877 313.98 156.247 314.18 155.487 314.18C154.727 314.18 154.087 313.98 153.567 313.58C153.067 313.16 152.817 312.54 152.817 311.72V305.12C152.817 304.32 152.677 303.76 152.397 303.44C152.117 303.12 151.707 302.96 151.167 302.96C150.467 302.96 149.907 303.21 149.487 303.71C149.067 304.21 148.857 304.9 148.857 305.78V311.72C148.857 312.54 148.607 313.16 148.107 313.58C147.607 313.98 146.967 314.18 146.187 314.18C145.427 314.18 144.787 313.98 144.267 313.58C143.767 313.16 143.517 312.54 143.517 311.72V305.12C143.517 304.32 143.377 303.76 143.097 303.44C142.817 303.12 142.407 302.96 141.867 302.96C141.167 302.96 140.607 303.21 140.187 303.71C139.787 304.21 139.587 304.9 139.587 305.78V311.72C139.587 312.54 139.327 313.16 138.807 313.58C138.307 313.98 137.677 314.18 136.917 314.18C136.157 314.18 135.517 313.98 134.997 313.58C134.497 313.16 134.247 312.54 134.247 311.72V301.34C134.247 300.56 134.507 299.97 135.027 299.57C135.567 299.15 136.207 298.94 136.947 298.94C137.647 298.94 138.227 299.13 138.687 299.51C139.167 299.87 139.417 300.4 139.437 301.1C140.417 299.62 141.917 298.88 143.937 298.88C146.077 298.88 147.507 299.75 148.227 301.49C148.727 300.69 149.397 300.06 150.237 299.6C151.077 299.12 152.027 298.88 153.087 298.88ZM171.04 300.44C171.26 299.94 171.56 299.57 171.94 299.33C172.32 299.09 172.74 298.97 173.2 298.97C173.86 298.97 174.45 299.19 174.97 299.63C175.49 300.07 175.75 300.6 175.75 301.22C175.75 301.56 175.67 301.89 175.51 302.21L167.56 318.14C167.32 318.64 167 319.01 166.6 319.25C166.22 319.49 165.8 319.61 165.34 319.61C164.68 319.61 164.09 319.39 163.57 318.95C163.07 318.53 162.82 318.01 162.82 317.39C162.82 317.05 162.91 316.7 163.09 316.34L165.04 312.41L159.94 302.21C159.78 301.85 159.7 301.53 159.7 301.25C159.7 300.61 159.98 300.07 160.54 299.63C161.1 299.17 161.73 298.94 162.43 298.94C162.91 298.94 163.35 299.07 163.75 299.33C164.17 299.57 164.49 299.94 164.71 300.44L167.89 307.34L171.04 300.44ZM195.765 298.88C197.025 298.88 198.145 299.21 199.125 299.87C200.125 300.51 200.895 301.42 201.435 302.6C201.995 303.78 202.275 305.13 202.275 306.65C202.275 308.17 201.995 309.51 201.435 310.67C200.895 311.81 200.135 312.69 199.155 313.31C198.175 313.93 197.045 314.24 195.765 314.24C194.825 314.24 193.955 314.05 193.155 313.67C192.375 313.29 191.765 312.78 191.325 312.14V317.24C191.325 317.94 191.085 318.5 190.605 318.92C190.125 319.34 189.495 319.55 188.715 319.55C187.895 319.55 187.235 319.32 186.735 318.86C186.235 318.42 185.985 317.85 185.985 317.15V301.4C185.985 300.66 186.215 300.07 186.675 299.63C187.155 299.17 187.795 298.94 188.595 298.94C189.355 298.94 189.965 299.14 190.425 299.54C190.905 299.94 191.175 300.47 191.235 301.13C191.655 300.43 192.265 299.88 193.065 299.48C193.885 299.08 194.785 298.88 195.765 298.88ZM194.145 310.25C195.065 310.25 195.765 309.94 196.245 309.32C196.745 308.7 196.995 307.81 196.995 306.65C196.995 305.43 196.745 304.5 196.245 303.86C195.745 303.2 195.035 302.87 194.115 302.87C193.195 302.87 192.485 303.19 191.985 303.83C191.485 304.47 191.235 305.39 191.235 306.59C191.235 307.77 191.485 308.68 191.985 309.32C192.485 309.94 193.205 310.25 194.145 310.25ZM216.735 309.26C217.195 309.26 217.565 309.44 217.845 309.8C218.145 310.16 218.295 310.63 218.295 311.21C218.295 312.01 217.905 312.62 217.125 313.04C216.445 313.38 215.635 313.67 214.695 313.91C213.775 314.13 212.925 314.24 212.145 314.24C210.505 314.24 209.075 313.93 207.855 313.31C206.635 312.69 205.695 311.8 205.035 310.64C204.375 309.48 204.045 308.12 204.045 306.56C204.045 305.08 204.355 303.76 204.975 302.6C205.615 301.42 206.495 300.51 207.615 299.87C208.755 299.21 210.035 298.88 211.455 298.88C212.835 298.88 214.045 299.18 215.085 299.78C216.125 300.38 216.925 301.23 217.485 302.33C218.065 303.43 218.355 304.72 218.355 306.2C218.355 306.66 218.245 307.02 218.025 307.28C217.825 307.52 217.525 307.64 217.125 307.64H209.205C209.345 308.6 209.655 309.29 210.135 309.71C210.615 310.13 211.325 310.34 212.265 310.34C212.765 310.34 213.225 310.29 213.645 310.19C214.065 310.07 214.535 309.91 215.055 309.71C215.355 309.59 215.645 309.49 215.925 309.41C216.225 309.31 216.495 309.26 216.735 309.26ZM211.605 302.48C210.905 302.48 210.345 302.71 209.925 303.17C209.505 303.61 209.255 304.26 209.175 305.12H213.885C213.765 303.36 213.005 302.48 211.605 302.48ZM230.149 298.94C230.829 298.88 231.369 299.04 231.769 299.42C232.169 299.78 232.369 300.32 232.369 301.04C232.369 301.84 232.179 302.42 231.799 302.78C231.439 303.14 230.779 303.37 229.819 303.47L228.919 303.56C227.919 303.68 227.199 304 226.759 304.52C226.339 305.02 226.129 305.71 226.129 306.59V311.72C226.129 312.54 225.869 313.16 225.349 313.58C224.849 313.98 224.219 314.18 223.459 314.18C222.699 314.18 222.059 313.98 221.539 313.58C221.039 313.16 220.789 312.54 220.789 311.72V301.34C220.789 300.58 221.039 299.99 221.539 299.57C222.059 299.15 222.679 298.94 223.399 298.94C224.139 298.94 224.729 299.14 225.169 299.54C225.629 299.94 225.859 300.5 225.859 301.22V301.79C226.179 300.91 226.699 300.23 227.419 299.75C228.159 299.27 228.929 299.01 229.729 298.97L230.149 298.94ZM236.028 314.18C235.268 314.18 234.628 313.98 234.108 313.58C233.608 313.16 233.358 312.54 233.358 311.72V301.4C233.358 300.58 233.608 299.97 234.108 299.57C234.628 299.15 235.268 298.94 236.028 298.94C236.788 298.94 237.418 299.15 237.918 299.57C238.438 299.97 238.698 300.58 238.698 301.4V311.72C238.698 312.54 238.438 313.16 237.918 313.58C237.418 313.98 236.788 314.18 236.028 314.18ZM236.028 296.84C235.128 296.84 234.408 296.61 233.868 296.15C233.348 295.67 233.088 295.04 233.088 294.26C233.088 293.48 233.348 292.86 233.868 292.4C234.408 291.94 235.128 291.71 236.028 291.71C236.908 291.71 237.618 291.94 238.158 292.4C238.698 292.86 238.968 293.48 238.968 294.26C238.968 295.04 238.698 295.67 238.158 296.15C237.638 296.61 236.928 296.84 236.028 296.84ZM249.235 314.24C247.615 314.24 246.185 313.93 244.945 313.31C243.725 312.67 242.775 311.77 242.095 310.61C241.435 309.45 241.105 308.09 241.105 306.53C241.105 304.97 241.435 303.62 242.095 302.48C242.775 301.32 243.725 300.43 244.945 299.81C246.165 299.19 247.595 298.88 249.235 298.88C250.875 298.88 252.305 299.19 253.525 299.81C254.745 300.43 255.685 301.32 256.345 302.48C257.025 303.62 257.365 304.97 257.365 306.53C257.365 308.09 257.025 309.45 256.345 310.61C255.685 311.77 254.745 312.67 253.525 313.31C252.305 313.93 250.875 314.24 249.235 314.24ZM249.235 310.25C251.135 310.25 252.085 309.01 252.085 306.53C252.085 304.05 251.135 302.81 249.235 302.81C247.335 302.81 246.385 304.05 246.385 306.53C246.385 309.01 247.335 310.25 249.235 310.25ZM272.684 292.7C273.484 292.7 274.134 292.93 274.634 293.39C275.154 293.83 275.414 294.4 275.414 295.1V311.72C275.414 312.48 275.174 313.08 274.694 313.52C274.214 313.96 273.574 314.18 272.774 314.18C272.034 314.18 271.424 313.99 270.944 313.61C270.484 313.21 270.224 312.67 270.164 311.99C269.744 312.69 269.124 313.24 268.304 313.64C267.504 314.04 266.614 314.24 265.634 314.24C264.374 314.24 263.244 313.92 262.244 313.28C261.264 312.62 260.494 311.7 259.934 310.52C259.374 309.34 259.094 307.99 259.094 306.47C259.094 304.95 259.364 303.62 259.904 302.48C260.464 301.32 261.234 300.43 262.214 299.81C263.214 299.19 264.354 298.88 265.634 298.88C266.574 298.88 267.434 299.07 268.214 299.45C269.014 299.83 269.634 300.34 270.074 300.98V295.01C270.074 294.31 270.304 293.75 270.764 293.33C271.244 292.91 271.884 292.7 272.684 292.7ZM267.254 310.25C268.194 310.25 268.914 309.93 269.414 309.29C269.914 308.65 270.164 307.73 270.164 306.53C270.164 305.35 269.914 304.45 269.414 303.83C268.914 303.19 268.194 302.87 267.254 302.87C266.334 302.87 265.624 303.18 265.124 303.8C264.624 304.42 264.374 305.31 264.374 306.47C264.374 307.67 264.624 308.6 265.124 309.26C265.644 309.92 266.354 310.25 267.254 310.25Z" fill="black"/>
<g clip-path="url(#clip1_1_27)">
<path d="M345 302C336.716 302 330 308.268 330 316C330 323.732 336.716 330 345 330C353.284 330 360 323.732 360 316C360 308.268 353.284 302 345 302ZM341.914 325.369L340.588 324.132L349.299 316L340.586 307.87L341.912 306.632L351.951 316L341.914 325.369Z" fill="#53538A"/>
</g>
<path d="M57.52 342.14C56.6133 342.14 55.8067 341.933 55.1 341.52C54.4067 341.107 53.8667 340.52 53.48 339.76C53.1067 339 52.92 338.12 52.92 337.12C52.92 336.12 53.1133 335.233 53.5 334.46C53.9 333.687 54.4533 333.087 55.16 332.66C55.8667 332.233 56.68 332.02 57.6 332.02C58.1067 332.02 58.6067 332.093 59.1 332.24C59.6067 332.373 60.0467 332.573 60.42 332.84C60.66 333 60.8267 333.16 60.92 333.32C61.0267 333.467 61.08 333.633 61.08 333.82C61.08 334.007 61.0267 334.16 60.92 334.28C60.8267 334.4 60.7 334.46 60.54 334.46C60.4467 334.46 60.3467 334.433 60.24 334.38C60.1333 334.327 60.04 334.273 59.96 334.22C59.8933 334.167 59.8467 334.133 59.82 334.12C59.4733 333.893 59.14 333.713 58.82 333.58C58.5133 333.447 58.1333 333.38 57.68 333.38C56.7067 333.38 55.9467 333.713 55.4 334.38C54.8667 335.033 54.6 335.947 54.6 337.12C54.6 338.293 54.8667 339.2 55.4 339.84C55.9467 340.48 56.7067 340.8 57.68 340.8C58.1333 340.8 58.52 340.733 58.84 340.6C59.1733 340.467 59.5067 340.287 59.84 340.06C59.9867 339.967 60.1267 339.887 60.26 339.82C60.3933 339.753 60.5067 339.72 60.6 339.72C60.7467 339.72 60.8667 339.78 60.96 339.9C61.0667 340.02 61.12 340.173 61.12 340.36C61.12 340.533 61.0733 340.693 60.98 340.84C60.8867 340.973 60.7133 341.127 60.46 341.3C60.0867 341.553 59.6333 341.76 59.1 341.92C58.58 342.067 58.0533 342.14 57.52 342.14ZM67.1103 342.14C66.1903 342.14 65.377 341.933 64.6703 341.52C63.977 341.107 63.437 340.52 63.0503 339.76C62.677 338.987 62.4903 338.093 62.4903 337.08C62.4903 336.067 62.677 335.18 63.0503 334.42C63.437 333.647 63.977 333.053 64.6703 332.64C65.377 332.227 66.1903 332.02 67.1103 332.02C68.0303 332.02 68.8436 332.227 69.5503 332.64C70.257 333.053 70.797 333.647 71.1703 334.42C71.557 335.18 71.7503 336.067 71.7503 337.08C71.7503 338.093 71.557 338.987 71.1703 339.76C70.797 340.52 70.257 341.107 69.5503 341.52C68.8436 341.933 68.0303 342.14 67.1103 342.14ZM67.1103 340.8C68.0703 340.8 68.8036 340.487 69.3103 339.86C69.8303 339.22 70.0903 338.293 70.0903 337.08C70.0903 335.893 69.8303 334.98 69.3103 334.34C68.7903 333.687 68.057 333.36 67.1103 333.36C66.1636 333.36 65.4303 333.687 64.9103 334.34C64.3903 334.98 64.1303 335.893 64.1303 337.08C64.1303 338.28 64.3836 339.2 64.8903 339.84C65.4103 340.48 66.1503 340.8 67.1103 340.8ZM79.0641 332.02C81.3974 332.02 82.5641 333.307 82.5641 335.88V341.3C82.5641 341.553 82.4907 341.753 82.3441 341.9C82.2107 342.033 82.0174 342.1 81.7641 342.1C81.5107 342.1 81.3107 342.033 81.1641 341.9C81.0174 341.753 80.9441 341.553 80.9441 341.3V335.98C80.9441 335.073 80.7641 334.413 80.4041 334C80.0574 333.587 79.4974 333.38 78.7241 333.38C77.8307 333.38 77.1174 333.653 76.5841 334.2C76.0507 334.747 75.7841 335.487 75.7841 336.42V341.3C75.7841 341.553 75.7107 341.753 75.5641 341.9C75.4307 342.033 75.2374 342.1 74.9841 342.1C74.7307 342.1 74.5307 342.033 74.3841 341.9C74.2374 341.753 74.1641 341.553 74.1641 341.3V332.86C74.1641 332.62 74.2374 332.427 74.3841 332.28C74.5307 332.133 74.7307 332.06 74.9841 332.06C75.2241 332.06 75.4107 332.133 75.5441 332.28C75.6907 332.427 75.7641 332.613 75.7641 332.84V333.86C76.0841 333.26 76.5307 332.807 77.1041 332.5C77.6774 332.18 78.3307 332.02 79.0641 332.02ZM90.0313 340.82C90.4979 340.86 90.7313 341.073 90.7313 341.46C90.7313 341.687 90.6446 341.86 90.4713 341.98C90.3113 342.087 90.0646 342.127 89.7313 342.1L89.1913 342.06C88.1246 341.98 87.3379 341.66 86.8313 341.1C86.3246 340.54 86.0713 339.693 86.0713 338.56V333.54H84.7313C84.5046 333.54 84.3246 333.487 84.1913 333.38C84.0713 333.26 84.0112 333.107 84.0112 332.92C84.0112 332.72 84.0713 332.56 84.1913 332.44C84.3246 332.32 84.5046 332.26 84.7313 332.26H86.0713V330C86.0713 329.747 86.1446 329.553 86.2913 329.42C86.4379 329.273 86.6379 329.2 86.8913 329.2C87.1313 329.2 87.3246 329.273 87.4713 329.42C87.6179 329.553 87.6913 329.747 87.6913 330V332.26H89.9112C90.1246 332.26 90.2913 332.32 90.4113 332.44C90.5446 332.56 90.6113 332.72 90.6113 332.92C90.6113 333.107 90.5446 333.26 90.4113 333.38C90.2913 333.487 90.1246 333.54 89.9112 333.54H87.6913V338.64C87.6913 339.373 87.8379 339.907 88.1313 340.24C88.4379 340.56 88.8913 340.74 89.4913 340.78L90.0313 340.82ZM97.1481 332.06C97.7081 332.02 97.9881 332.247 97.9881 332.74C97.9881 332.953 97.9281 333.127 97.8081 333.26C97.6881 333.38 97.4815 333.453 97.1881 333.48L96.5881 333.54C95.6948 333.62 95.0281 333.94 94.5881 334.5C94.1615 335.047 93.9481 335.693 93.9481 336.44V341.3C93.9481 341.567 93.8748 341.767 93.7281 341.9C93.5815 342.033 93.3881 342.1 93.1481 342.1C92.9081 342.1 92.7081 342.033 92.5481 341.9C92.4015 341.753 92.3281 341.553 92.3281 341.3V332.86C92.3281 332.607 92.4081 332.413 92.5681 332.28C92.7281 332.133 92.9215 332.06 93.1481 332.06C93.3615 332.06 93.5415 332.133 93.6881 332.28C93.8348 332.413 93.9081 332.6 93.9081 332.84V333.96C94.1881 333.373 94.5815 332.927 95.0881 332.62C95.6081 332.313 96.2015 332.133 96.8681 332.08L97.1481 332.06ZM103.281 332.02C105.721 332.02 106.941 333.3 106.941 335.86V341.3C106.941 341.54 106.867 341.733 106.721 341.88C106.587 342.027 106.401 342.1 106.161 342.1C105.921 342.1 105.727 342.027 105.581 341.88C105.434 341.733 105.361 341.54 105.361 341.3V340.34C105.107 340.913 104.721 341.36 104.201 341.68C103.681 341.987 103.081 342.14 102.401 342.14C101.774 342.14 101.194 342.013 100.661 341.76C100.141 341.507 99.7274 341.153 99.4208 340.7C99.1141 340.247 98.9608 339.747 98.9608 339.2C98.9608 338.467 99.1474 337.9 99.5208 337.5C99.8941 337.087 100.507 336.793 101.361 336.62C102.214 336.433 103.401 336.34 104.921 336.34H105.361V335.68C105.361 334.88 105.194 334.293 104.861 333.92C104.541 333.547 104.014 333.36 103.281 333.36C102.374 333.36 101.454 333.607 100.521 334.1C100.161 334.327 99.9074 334.44 99.7608 334.44C99.6008 334.44 99.4674 334.38 99.3608 334.26C99.2541 334.14 99.2008 333.987 99.2008 333.8C99.2008 333.613 99.2541 333.453 99.3608 333.32C99.4808 333.173 99.6674 333.027 99.9208 332.88C100.387 332.613 100.914 332.407 101.501 332.26C102.101 332.1 102.694 332.02 103.281 332.02ZM102.621 340.86C103.421 340.86 104.074 340.593 104.581 340.06C105.101 339.513 105.361 338.813 105.361 337.96V337.38H105.001C103.827 337.38 102.934 337.433 102.321 337.54C101.707 337.633 101.267 337.8 101.001 338.04C100.747 338.267 100.621 338.607 100.621 339.06C100.621 339.58 100.807 340.013 101.181 340.36C101.567 340.693 102.047 340.86 102.621 340.86ZM113.926 342.14C113.02 342.14 112.213 341.933 111.506 341.52C110.813 341.107 110.273 340.52 109.886 339.76C109.513 339 109.326 338.12 109.326 337.12C109.326 336.12 109.52 335.233 109.906 334.46C110.306 333.687 110.86 333.087 111.566 332.66C112.273 332.233 113.086 332.02 114.006 332.02C114.513 332.02 115.013 332.093 115.506 332.24C116.013 332.373 116.453 332.573 116.826 332.84C117.066 333 117.233 333.16 117.326 333.32C117.433 333.467 117.486 333.633 117.486 333.82C117.486 334.007 117.433 334.16 117.326 334.28C117.233 334.4 117.106 334.46 116.946 334.46C116.853 334.46 116.753 334.433 116.646 334.38C116.54 334.327 116.446 334.273 116.366 334.22C116.3 334.167 116.253 334.133 116.226 334.12C115.88 333.893 115.546 333.713 115.226 333.58C114.92 333.447 114.54 333.38 114.086 333.38C113.113 333.38 112.353 333.713 111.806 334.38C111.273 335.033 111.006 335.947 111.006 337.12C111.006 338.293 111.273 339.2 111.806 339.84C112.353 340.48 113.113 340.8 114.086 340.8C114.54 340.8 114.926 340.733 115.246 340.6C115.58 340.467 115.913 340.287 116.246 340.06C116.393 339.967 116.533 339.887 116.666 339.82C116.8 339.753 116.913 339.72 117.006 339.72C117.153 339.72 117.273 339.78 117.366 339.9C117.473 340.02 117.526 340.173 117.526 340.36C117.526 340.533 117.48 340.693 117.386 340.84C117.293 340.973 117.12 341.127 116.866 341.3C116.493 341.553 116.04 341.76 115.506 341.92C114.986 342.067 114.46 342.14 113.926 342.14ZM127.017 339.74C127.163 339.74 127.29 339.8 127.397 339.92C127.503 340.04 127.557 340.193 127.557 340.38C127.557 340.713 127.323 341.02 126.857 341.3C126.377 341.58 125.87 341.793 125.337 341.94C124.803 342.073 124.283 342.14 123.777 342.14C122.27 342.14 121.077 341.693 120.197 340.8C119.33 339.907 118.897 338.673 118.897 337.1C118.897 336.1 119.09 335.22 119.477 334.46C119.863 333.687 120.403 333.087 121.097 332.66C121.803 332.233 122.603 332.02 123.497 332.02C124.763 332.02 125.77 332.433 126.517 333.26C127.263 334.087 127.637 335.207 127.637 336.62C127.637 336.887 127.583 337.08 127.477 337.2C127.37 337.32 127.197 337.38 126.957 337.38H120.517C120.637 339.673 121.723 340.82 123.777 340.82C124.297 340.82 124.743 340.753 125.117 340.62C125.49 340.473 125.89 340.28 126.317 340.04C126.663 339.84 126.897 339.74 127.017 339.74ZM123.517 333.28C122.663 333.28 121.977 333.547 121.457 334.08C120.95 334.613 120.65 335.367 120.557 336.34H126.217C126.19 335.353 125.943 334.6 125.477 334.08C125.01 333.547 124.357 333.28 123.517 333.28ZM134.923 332.02C135.777 332.02 136.53 332.233 137.183 332.66C137.837 333.087 138.343 333.687 138.703 334.46C139.063 335.22 139.243 336.107 139.243 337.12C139.243 338.133 139.063 339.02 138.703 339.78C138.343 340.527 137.837 341.107 137.183 341.52C136.543 341.933 135.79 342.14 134.923 342.14C134.163 342.14 133.497 341.973 132.923 341.64C132.363 341.307 131.937 340.833 131.643 340.22V344.92C131.643 345.16 131.57 345.347 131.423 345.48C131.29 345.627 131.097 345.7 130.843 345.7C130.59 345.7 130.39 345.627 130.243 345.48C130.097 345.333 130.023 345.147 130.023 344.92V332.86C130.023 332.62 130.097 332.427 130.243 332.28C130.39 332.133 130.59 332.06 130.843 332.06C131.097 332.06 131.29 332.133 131.423 332.28C131.57 332.427 131.643 332.62 131.643 332.86V333.94C131.937 333.327 132.363 332.853 132.923 332.52C133.497 332.187 134.163 332.02 134.923 332.02ZM134.603 340.8C135.55 340.8 136.283 340.48 136.803 339.84C137.323 339.2 137.583 338.293 137.583 337.12C137.583 335.947 137.323 335.033 136.803 334.38C136.283 333.713 135.55 333.38 134.603 333.38C133.657 333.38 132.923 333.7 132.403 334.34C131.897 334.98 131.643 335.893 131.643 337.08C131.643 338.267 131.897 339.187 132.403 339.84C132.923 340.48 133.657 340.8 134.603 340.8ZM146.145 340.82C146.611 340.86 146.845 341.073 146.845 341.46C146.845 341.687 146.758 341.86 146.585 341.98C146.425 342.087 146.178 342.127 145.845 342.1L145.305 342.06C144.238 341.98 143.451 341.66 142.945 341.1C142.438 340.54 142.185 339.693 142.185 338.56V333.54H140.845C140.618 333.54 140.438 333.487 140.305 333.38C140.185 333.26 140.125 333.107 140.125 332.92C140.125 332.72 140.185 332.56 140.305 332.44C140.438 332.32 140.618 332.26 140.845 332.26H142.185V330C142.185 329.747 142.258 329.553 142.405 329.42C142.551 329.273 142.751 329.2 143.005 329.2C143.245 329.2 143.438 329.273 143.585 329.42C143.731 329.553 143.805 329.747 143.805 330V332.26H146.025C146.238 332.26 146.405 332.32 146.525 332.44C146.658 332.56 146.725 332.72 146.725 332.92C146.725 333.107 146.658 333.26 146.525 333.38C146.405 333.487 146.238 333.54 146.025 333.54H143.805V338.64C143.805 339.373 143.951 339.907 144.245 340.24C144.551 340.56 145.005 340.74 145.605 340.78L146.145 340.82ZM149.261 342.1C149.021 342.1 148.821 342.033 148.661 341.9C148.515 341.753 148.441 341.553 148.441 341.3V332.86C148.441 332.607 148.515 332.413 148.661 332.28C148.821 332.133 149.021 332.06 149.261 332.06C149.501 332.06 149.695 332.133 149.841 332.28C149.988 332.413 150.061 332.607 150.061 332.86V341.3C150.061 341.567 149.988 341.767 149.841 341.9C149.695 342.033 149.501 342.1 149.261 342.1ZM149.261 329.96C148.941 329.96 148.681 329.867 148.481 329.68C148.281 329.493 148.181 329.247 148.181 328.94C148.181 328.647 148.281 328.407 148.481 328.22C148.681 328.033 148.941 327.94 149.261 327.94C149.581 327.94 149.841 328.033 150.041 328.22C150.241 328.407 150.341 328.647 150.341 328.94C150.341 329.247 150.241 329.493 150.041 329.68C149.841 329.867 149.581 329.96 149.261 329.96ZM157.13 342.14C156.21 342.14 155.397 341.933 154.69 341.52C153.997 341.107 153.457 340.52 153.07 339.76C152.697 338.987 152.51 338.093 152.51 337.08C152.51 336.067 152.697 335.18 153.07 334.42C153.457 333.647 153.997 333.053 154.69 332.64C155.397 332.227 156.21 332.02 157.13 332.02C158.05 332.02 158.863 332.227 159.57 332.64C160.277 333.053 160.817 333.647 161.19 334.42C161.577 335.18 161.77 336.067 161.77 337.08C161.77 338.093 161.577 338.987 161.19 339.76C160.817 340.52 160.277 341.107 159.57 341.52C158.863 341.933 158.05 342.14 157.13 342.14ZM157.13 340.8C158.09 340.8 158.823 340.487 159.33 339.86C159.85 339.22 160.11 338.293 160.11 337.08C160.11 335.893 159.85 334.98 159.33 334.34C158.81 333.687 158.077 333.36 157.13 333.36C156.183 333.36 155.45 333.687 154.93 334.34C154.41 334.98 154.15 335.893 154.15 337.08C154.15 338.28 154.403 339.2 154.91 339.84C155.43 340.48 156.17 340.8 157.13 340.8ZM169.084 332.02C171.417 332.02 172.584 333.307 172.584 335.88V341.3C172.584 341.553 172.51 341.753 172.364 341.9C172.23 342.033 172.037 342.1 171.784 342.1C171.53 342.1 171.33 342.033 171.184 341.9C171.037 341.753 170.964 341.553 170.964 341.3V335.98C170.964 335.073 170.784 334.413 170.424 334C170.077 333.587 169.517 333.38 168.744 333.38C167.85 333.38 167.137 333.653 166.604 334.2C166.07 334.747 165.804 335.487 165.804 336.42V341.3C165.804 341.553 165.73 341.753 165.584 341.9C165.45 342.033 165.257 342.1 165.004 342.1C164.75 342.1 164.55 342.033 164.404 341.9C164.257 341.753 164.184 341.553 164.184 341.3V332.86C164.184 332.62 164.257 332.427 164.404 332.28C164.55 332.133 164.75 332.06 165.004 332.06C165.244 332.06 165.43 332.133 165.564 332.28C165.71 332.427 165.784 332.613 165.784 332.84V333.86C166.104 333.26 166.55 332.807 167.124 332.5C167.697 332.18 168.35 332.02 169.084 332.02ZM184.687 332.02C187.127 332.02 188.347 333.3 188.347 335.86V341.3C188.347 341.54 188.274 341.733 188.127 341.88C187.994 342.027 187.807 342.1 187.567 342.1C187.327 342.1 187.134 342.027 186.987 341.88C186.84 341.733 186.767 341.54 186.767 341.3V340.34C186.514 340.913 186.127 341.36 185.607 341.68C185.087 341.987 184.487 342.14 183.807 342.14C183.18 342.14 182.6 342.013 182.067 341.76C181.547 341.507 181.134 341.153 180.827 340.7C180.52 340.247 180.367 339.747 180.367 339.2C180.367 338.467 180.554 337.9 180.927 337.5C181.3 337.087 181.914 336.793 182.767 336.62C183.62 336.433 184.807 336.34 186.327 336.34H186.767V335.68C186.767 334.88 186.6 334.293 186.267 333.92C185.947 333.547 185.42 333.36 184.687 333.36C183.78 333.36 182.86 333.607 181.927 334.1C181.567 334.327 181.314 334.44 181.167 334.44C181.007 334.44 180.874 334.38 180.767 334.26C180.66 334.14 180.607 333.987 180.607 333.8C180.607 333.613 180.66 333.453 180.767 333.32C180.887 333.173 181.074 333.027 181.327 332.88C181.794 332.613 182.32 332.407 182.907 332.26C183.507 332.1 184.1 332.02 184.687 332.02ZM184.027 340.86C184.827 340.86 185.48 340.593 185.987 340.06C186.507 339.513 186.767 338.813 186.767 337.96V337.38H186.407C185.234 337.38 184.34 337.433 183.727 337.54C183.114 337.633 182.674 337.8 182.407 338.04C182.154 338.267 182.027 338.607 182.027 339.06C182.027 339.58 182.214 340.013 182.587 340.36C182.974 340.693 183.454 340.86 184.027 340.86ZM196.213 332.02C198.546 332.02 199.713 333.307 199.713 335.88V341.3C199.713 341.553 199.639 341.753 199.493 341.9C199.359 342.033 199.166 342.1 198.913 342.1C198.659 342.1 198.459 342.033 198.313 341.9C198.166 341.753 198.093 341.553 198.093 341.3V335.98C198.093 335.073 197.913 334.413 197.553 334C197.206 333.587 196.646 333.38 195.873 333.38C194.979 333.38 194.266 333.653 193.733 334.2C193.199 334.747 192.933 335.487 192.933 336.42V341.3C192.933 341.553 192.859 341.753 192.713 341.9C192.579 342.033 192.386 342.1 192.133 342.1C191.879 342.1 191.679 342.033 191.533 341.9C191.386 341.753 191.313 341.553 191.313 341.3V332.86C191.313 332.62 191.386 332.427 191.533 332.28C191.679 332.133 191.879 332.06 192.133 332.06C192.373 332.06 192.559 332.133 192.693 332.28C192.839 332.427 192.913 332.613 192.913 332.84V333.86C193.233 333.26 193.679 332.807 194.253 332.5C194.826 332.18 195.479 332.02 196.213 332.02ZM210.5 327.8C210.753 327.8 210.953 327.873 211.1 328.02C211.246 328.167 211.32 328.353 211.32 328.58V341.3C211.32 341.54 211.246 341.733 211.1 341.88C210.953 342.027 210.753 342.1 210.5 342.1C210.246 342.1 210.046 342.027 209.9 341.88C209.766 341.733 209.7 341.54 209.7 341.3V340.22C209.406 340.833 208.973 341.307 208.4 341.64C207.84 341.973 207.18 342.14 206.42 342.14C205.566 342.14 204.813 341.927 204.16 341.5C203.506 341.073 203 340.48 202.64 339.72C202.28 338.947 202.1 338.053 202.1 337.04C202.1 336.04 202.28 335.16 202.64 334.4C203 333.64 203.506 333.053 204.16 332.64C204.813 332.227 205.566 332.02 206.42 332.02C207.18 332.02 207.84 332.187 208.4 332.52C208.973 332.853 209.406 333.327 209.7 333.94V328.58C209.7 328.34 209.766 328.153 209.9 328.02C210.046 327.873 210.246 327.8 210.5 327.8ZM206.74 340.8C207.686 340.8 208.413 340.48 208.92 339.84C209.44 339.187 209.7 338.267 209.7 337.08C209.7 335.893 209.44 334.98 208.92 334.34C208.413 333.7 207.686 333.38 206.74 333.38C205.793 333.38 205.053 333.7 204.52 334.34C204 334.98 203.74 335.88 203.74 337.04C203.74 338.227 204 339.153 204.52 339.82C205.053 340.473 205.793 340.8 206.74 340.8ZM232.797 332.58C232.93 332.26 233.15 332.1 233.457 332.1C233.657 332.1 233.837 332.167 233.997 332.3C234.157 332.433 234.237 332.6 234.237 332.8C234.237 332.893 234.217 332.993 234.177 333.1L230.857 341.5C230.777 341.673 230.657 341.813 230.497 341.92C230.35 342.013 230.183 342.06 229.997 342.06C229.823 342.06 229.657 342.013 229.497 341.92C229.35 341.813 229.237 341.673 229.157 341.5L226.397 334.48L223.657 341.5C223.59 341.673 223.477 341.813 223.317 341.92C223.157 342.013 222.983 342.06 222.797 342.06C222.623 342.06 222.457 342.013 222.297 341.92C222.137 341.813 222.017 341.673 221.937 341.5L218.617 333.12C218.577 333.013 218.557 332.92 218.557 332.84C218.557 332.627 218.643 332.447 218.817 332.3C219.003 332.153 219.203 332.08 219.417 332.08C219.737 332.08 219.963 332.24 220.097 332.56L222.837 339.94L225.657 332.62C225.737 332.447 225.843 332.313 225.977 332.22C226.123 332.127 226.277 332.08 226.437 332.08C226.61 332.08 226.763 332.127 226.897 332.22C227.043 332.313 227.15 332.447 227.217 332.62L230.037 339.92L232.797 332.58ZM243.735 339.74C243.882 339.74 244.009 339.8 244.115 339.92C244.222 340.04 244.275 340.193 244.275 340.38C244.275 340.713 244.042 341.02 243.575 341.3C243.095 341.58 242.589 341.793 242.055 341.94C241.522 342.073 241.002 342.14 240.495 342.14C238.989 342.14 237.795 341.693 236.915 340.8C236.049 339.907 235.615 338.673 235.615 337.1C235.615 336.1 235.809 335.22 236.195 334.46C236.582 333.687 237.122 333.087 237.815 332.66C238.522 332.233 239.322 332.02 240.215 332.02C241.482 332.02 242.489 332.433 243.235 333.26C243.982 334.087 244.355 335.207 244.355 336.62C244.355 336.887 244.302 337.08 244.195 337.2C244.089 337.32 243.915 337.38 243.675 337.38H237.235C237.355 339.673 238.442 340.82 240.495 340.82C241.015 340.82 241.462 340.753 241.835 340.62C242.209 340.473 242.609 340.28 243.035 340.04C243.382 339.84 243.615 339.74 243.735 339.74ZM240.235 333.28C239.382 333.28 238.695 333.547 238.175 334.08C237.669 334.613 237.369 335.367 237.275 336.34H242.935C242.909 335.353 242.662 334.6 242.195 334.08C241.729 333.547 241.075 333.28 240.235 333.28ZM247.562 342.1C247.322 342.1 247.122 342.033 246.962 341.9C246.816 341.753 246.742 341.553 246.742 341.3V328.6C246.742 328.347 246.816 328.153 246.962 328.02C247.122 327.873 247.322 327.8 247.562 327.8C247.789 327.8 247.976 327.873 248.122 328.02C248.282 328.153 248.362 328.347 248.362 328.6V341.3C248.362 341.553 248.282 341.753 248.122 341.9C247.976 342.033 247.789 342.1 247.562 342.1ZM252.211 342.1C251.971 342.1 251.771 342.033 251.611 341.9C251.464 341.753 251.391 341.553 251.391 341.3V328.6C251.391 328.347 251.464 328.153 251.611 328.02C251.771 327.873 251.971 327.8 252.211 327.8C252.437 327.8 252.624 327.873 252.771 328.02C252.931 328.153 253.011 328.347 253.011 328.6V341.3C253.011 341.553 252.931 341.753 252.771 341.9C252.624 342.033 252.437 342.1 252.211 342.1ZM260.939 332.02C261.792 332.02 262.546 332.227 263.199 332.64C263.852 333.053 264.359 333.64 264.719 334.4C265.079 335.16 265.259 336.04 265.259 337.04C265.259 338.053 265.079 338.947 264.719 339.72C264.359 340.48 263.852 341.073 263.199 341.5C262.546 341.927 261.792 342.14 260.939 342.14C260.179 342.14 259.512 341.973 258.939 341.64C258.379 341.307 257.952 340.833 257.659 340.22V341.3C257.659 341.54 257.586 341.733 257.439 341.88C257.306 342.027 257.112 342.1 256.859 342.1C256.606 342.1 256.406 342.027 256.259 341.88C256.112 341.733 256.039 341.54 256.039 341.3V328.58C256.039 328.353 256.112 328.167 256.259 328.02C256.406 327.873 256.606 327.8 256.859 327.8C257.112 327.8 257.306 327.873 257.439 328.02C257.586 328.153 257.659 328.34 257.659 328.58V333.94C257.952 333.327 258.379 332.853 258.939 332.52C259.512 332.187 260.179 332.02 260.939 332.02ZM260.619 340.8C261.566 340.8 262.299 340.473 262.819 339.82C263.339 339.153 263.599 338.227 263.599 337.04C263.599 335.88 263.339 334.98 262.819 334.34C262.299 333.7 261.566 333.38 260.619 333.38C259.672 333.38 258.939 333.7 258.419 334.34C257.912 334.98 257.659 335.893 257.659 337.08C257.659 338.267 257.912 339.187 258.419 339.84C258.939 340.48 259.672 340.8 260.619 340.8ZM275.22 339.74C275.366 339.74 275.493 339.8 275.6 339.92C275.706 340.04 275.76 340.193 275.76 340.38C275.76 340.713 275.526 341.02 275.06 341.3C274.58 341.58 274.073 341.793 273.54 341.94C273.006 342.073 272.486 342.14 271.98 342.14C270.473 342.14 269.28 341.693 268.4 340.8C267.533 339.907 267.1 338.673 267.1 337.1C267.1 336.1 267.293 335.22 267.68 334.46C268.066 333.687 268.606 333.087 269.3 332.66C270.006 332.233 270.806 332.02 271.7 332.02C272.966 332.02 273.973 332.433 274.72 333.26C275.466 334.087 275.84 335.207 275.84 336.62C275.84 336.887 275.786 337.08 275.68 337.2C275.573 337.32 275.4 337.38 275.16 337.38H268.72C268.84 339.673 269.926 340.82 271.98 340.82C272.5 340.82 272.946 340.753 273.32 340.62C273.693 340.473 274.093 340.28 274.52 340.04C274.866 339.84 275.1 339.74 275.22 339.74ZM271.72 333.28C270.866 333.28 270.18 333.547 269.66 334.08C269.153 334.613 268.853 335.367 268.76 336.34H274.42C274.393 335.353 274.146 334.6 273.68 334.08C273.213 333.547 272.56 333.28 271.72 333.28ZM279.047 342.1C278.807 342.1 278.607 342.033 278.447 341.9C278.3 341.753 278.227 341.553 278.227 341.3V332.86C278.227 332.607 278.3 332.413 278.447 332.28C278.607 332.133 278.807 332.06 279.047 332.06C279.287 332.06 279.48 332.133 279.627 332.28C279.773 332.413 279.847 332.607 279.847 332.86V341.3C279.847 341.567 279.773 341.767 279.627 341.9C279.48 342.033 279.287 342.1 279.047 342.1ZM279.047 329.96C278.727 329.96 278.467 329.867 278.267 329.68C278.067 329.493 277.967 329.247 277.967 328.94C277.967 328.647 278.067 328.407 278.267 328.22C278.467 328.033 278.727 327.94 279.047 327.94C279.367 327.94 279.627 328.033 279.827 328.22C280.027 328.407 280.127 328.647 280.127 328.94C280.127 329.247 280.027 329.493 279.827 329.68C279.627 329.867 279.367 329.96 279.047 329.96ZM287.775 332.02C290.108 332.02 291.275 333.307 291.275 335.88V341.3C291.275 341.553 291.202 341.753 291.055 341.9C290.922 342.033 290.728 342.1 290.475 342.1C290.222 342.1 290.022 342.033 289.875 341.9C289.728 341.753 289.655 341.553 289.655 341.3V335.98C289.655 335.073 289.475 334.413 289.115 334C288.768 333.587 288.208 333.38 287.435 333.38C286.542 333.38 285.828 333.653 285.295 334.2C284.762 334.747 284.495 335.487 284.495 336.42V341.3C284.495 341.553 284.422 341.753 284.275 341.9C284.142 342.033 283.948 342.1 283.695 342.1C283.442 342.1 283.242 342.033 283.095 341.9C282.948 341.753 282.875 341.553 282.875 341.3V332.86C282.875 332.62 282.948 332.427 283.095 332.28C283.242 332.133 283.442 332.06 283.695 332.06C283.935 332.06 284.122 332.133 284.255 332.28C284.402 332.427 284.475 332.613 284.475 332.84V333.86C284.795 333.26 285.242 332.807 285.815 332.5C286.388 332.18 287.042 332.02 287.775 332.02ZM302.142 332.06C302.396 332.06 302.596 332.133 302.742 332.28C302.889 332.427 302.962 332.62 302.962 332.86V341.34C302.962 342.793 302.589 343.887 301.842 344.62C301.096 345.367 299.989 345.74 298.522 345.74C297.096 345.74 295.909 345.46 294.962 344.9C294.482 344.633 294.242 344.327 294.242 343.98C294.242 343.793 294.289 343.64 294.382 343.52C294.489 343.4 294.622 343.34 294.782 343.34C294.916 343.34 295.156 343.433 295.502 343.62C295.969 343.86 296.429 344.053 296.882 344.2C297.336 344.347 297.876 344.42 298.502 344.42C299.449 344.42 300.162 344.167 300.642 343.66C301.122 343.167 301.362 342.44 301.362 341.48V339.76C301.082 340.387 300.649 340.867 300.062 341.2C299.489 341.533 298.809 341.7 298.022 341.7C297.169 341.7 296.409 341.5 295.742 341.1C295.089 340.7 294.576 340.133 294.202 339.4C293.842 338.667 293.662 337.82 293.662 336.86C293.662 335.9 293.842 335.053 294.202 334.32C294.576 333.587 295.089 333.02 295.742 332.62C296.409 332.22 297.169 332.02 298.022 332.02C298.796 332.02 299.469 332.187 300.042 332.52C300.616 332.853 301.049 333.327 301.342 333.94V332.86C301.342 332.62 301.409 332.427 301.542 332.28C301.689 332.133 301.889 332.06 302.142 332.06ZM298.342 340.36C299.276 340.36 300.009 340.053 300.542 339.44C301.076 338.813 301.342 337.953 301.342 336.86C301.342 335.78 301.076 334.933 300.542 334.32C300.022 333.693 299.289 333.38 298.342 333.38C297.396 333.38 296.649 333.693 296.102 334.32C295.569 334.933 295.302 335.78 295.302 336.86C295.302 337.953 295.569 338.813 296.102 339.44C296.649 340.053 297.396 340.36 298.342 340.36Z" fill="black"/>
<rect x="34" y="457" width="343" height="131" rx="20" fill="#FFEFEF"/>
<path d="M64.48 506.06C65.14 506.06 65.66 506.25 66.04 506.63C66.44 506.99 66.64 507.48 66.64 508.1V513.32C66.64 514.32 66.56 515.09 66.4 515.63C66.26 516.15 65.99 516.56 65.59 516.86C65.21 517.16 64.63 517.42 63.85 517.64C63.07 517.84 62.2 517.99 61.24 518.09C60.3 518.21 59.42 518.27 58.6 518.27C56.3 518.27 54.3 517.84 52.6 516.98C50.92 516.1 49.63 514.85 48.73 513.23C47.83 511.59 47.38 509.65 47.38 507.41C47.38 505.21 47.83 503.3 48.73 501.68C49.63 500.04 50.91 498.78 52.57 497.9C54.23 497.02 56.17 496.58 58.39 496.58C59.79 496.58 61.04 496.75 62.14 497.09C63.26 497.41 64.3 497.91 65.26 498.59C65.6 498.83 65.84 499.09 65.98 499.37C66.14 499.65 66.22 500.01 66.22 500.45C66.22 501.07 66.05 501.6 65.71 502.04C65.37 502.46 64.96 502.67 64.48 502.67C64.16 502.67 63.88 502.63 63.64 502.55C63.42 502.45 63.13 502.29 62.77 502.07C62.03 501.67 61.33 501.38 60.67 501.2C60.03 501.02 59.33 500.93 58.57 500.93C56.67 500.93 55.25 501.46 54.31 502.52C53.39 503.58 52.93 505.21 52.93 507.41C52.93 509.67 53.41 511.35 54.37 512.45C55.35 513.53 56.84 514.07 58.84 514.07C59.8 514.07 60.75 513.97 61.69 513.77V509.84H59.53C58.87 509.84 58.36 509.68 58 509.36C57.64 509.02 57.46 508.55 57.46 507.95C57.46 507.35 57.64 506.89 58 506.57C58.36 506.23 58.87 506.06 59.53 506.06H64.48ZM81.8842 513.26C82.3442 513.26 82.7142 513.44 82.9942 513.8C83.2942 514.16 83.4442 514.63 83.4442 515.21C83.4442 516.01 83.0542 516.62 82.2742 517.04C81.5942 517.38 80.7842 517.67 79.8442 517.91C78.9242 518.13 78.0742 518.24 77.2942 518.24C75.6542 518.24 74.2242 517.93 73.0042 517.31C71.7842 516.69 70.8442 515.8 70.1842 514.64C69.5242 513.48 69.1942 512.12 69.1942 510.56C69.1942 509.08 69.5042 507.76 70.1242 506.6C70.7642 505.42 71.6442 504.51 72.7642 503.87C73.9042 503.21 75.1842 502.88 76.6042 502.88C77.9842 502.88 79.1942 503.18 80.2342 503.78C81.2742 504.38 82.0742 505.23 82.6342 506.33C83.2142 507.43 83.5042 508.72 83.5042 510.2C83.5042 510.66 83.3942 511.02 83.1742 511.28C82.9742 511.52 82.6742 511.64 82.2742 511.64H74.3542C74.4942 512.6 74.8042 513.29 75.2842 513.71C75.7642 514.13 76.4742 514.34 77.4142 514.34C77.9142 514.34 78.3742 514.29 78.7942 514.19C79.2142 514.07 79.6842 513.91 80.2042 513.71C80.5042 513.59 80.7942 513.49 81.0742 513.41C81.3742 513.31 81.6442 513.26 81.8842 513.26ZM76.7542 506.48C76.0542 506.48 75.4942 506.71 75.0742 507.17C74.6542 507.61 74.4042 508.26 74.3242 509.12H79.0342C78.9142 507.36 78.1542 506.48 76.7542 506.48ZM94.3173 514.37C95.6573 514.45 96.3273 515.05 96.3273 516.17C96.3273 516.87 96.0573 517.39 95.5173 517.73C94.9773 518.07 94.2073 518.21 93.2073 518.15L92.3673 518.09C90.5673 517.95 89.1973 517.41 88.2573 516.47C87.3373 515.51 86.8773 514.18 86.8773 512.48V507.17H86.0073C84.4073 507.17 83.6073 506.51 83.6073 505.19C83.6073 503.89 84.4073 503.24 86.0073 503.24H86.8773V501.29C86.8773 500.53 87.1173 499.93 87.5973 499.49C88.0773 499.03 88.7273 498.8 89.5473 498.8C90.3673 498.8 91.0173 499.03 91.4973 499.49C91.9773 499.93 92.2173 500.53 92.2173 501.29V503.24H93.8673C95.4673 503.24 96.2673 503.89 96.2673 505.19C96.2673 506.51 95.4673 507.17 93.8673 507.17H92.2173V512.93C92.2173 513.31 92.3273 513.63 92.5473 513.89C92.7873 514.15 93.0873 514.29 93.4473 514.31L94.3173 514.37ZM116.11 502.88C117.37 502.88 118.49 503.21 119.47 503.87C120.47 504.51 121.24 505.42 121.78 506.6C122.34 507.78 122.62 509.13 122.62 510.65C122.62 512.17 122.34 513.51 121.78 514.67C121.24 515.81 120.48 516.69 119.5 517.31C118.52 517.93 117.39 518.24 116.11 518.24C115.17 518.24 114.3 518.05 113.5 517.67C112.72 517.29 112.11 516.78 111.67 516.14V521.24C111.67 521.94 111.43 522.5 110.95 522.92C110.47 523.34 109.84 523.55 109.06 523.55C108.24 523.55 107.58 523.32 107.08 522.86C106.58 522.42 106.33 521.85 106.33 521.15V505.4C106.33 504.66 106.56 504.07 107.02 503.63C107.5 503.17 108.14 502.94 108.94 502.94C109.7 502.94 110.31 503.14 110.77 503.54C111.25 503.94 111.52 504.47 111.58 505.13C112 504.43 112.61 503.88 113.41 503.48C114.23 503.08 115.13 502.88 116.11 502.88ZM114.49 514.25C115.41 514.25 116.11 513.94 116.59 513.32C117.09 512.7 117.34 511.81 117.34 510.65C117.34 509.43 117.09 508.5 116.59 507.86C116.09 507.2 115.38 506.87 114.46 506.87C113.54 506.87 112.83 507.19 112.33 507.83C111.83 508.47 111.58 509.39 111.58 510.59C111.58 511.77 111.83 512.68 112.33 513.32C112.83 513.94 113.55 514.25 114.49 514.25ZM134.44 502.94C135.12 502.88 135.66 503.04 136.06 503.42C136.46 503.78 136.66 504.32 136.66 505.04C136.66 505.84 136.47 506.42 136.09 506.78C135.73 507.14 135.07 507.37 134.11 507.47L133.21 507.56C132.21 507.68 131.49 508 131.05 508.52C130.63 509.02 130.42 509.71 130.42 510.59V515.72C130.42 516.54 130.16 517.16 129.64 517.58C129.14 517.98 128.51 518.18 127.75 518.18C126.99 518.18 126.35 517.98 125.83 517.58C125.33 517.16 125.08 516.54 125.08 515.72V505.34C125.08 504.58 125.33 503.99 125.83 503.57C126.35 503.15 126.97 502.94 127.69 502.94C128.43 502.94 129.02 503.14 129.46 503.54C129.92 503.94 130.15 504.5 130.15 505.22V505.79C130.47 504.91 130.99 504.23 131.71 503.75C132.45 503.27 133.22 503.01 134.02 502.97L134.44 502.94ZM149.355 513.26C149.815 513.26 150.185 513.44 150.465 513.8C150.765 514.16 150.915 514.63 150.915 515.21C150.915 516.01 150.525 516.62 149.745 517.04C149.065 517.38 148.255 517.67 147.315 517.91C146.395 518.13 145.545 518.24 144.765 518.24C143.125 518.24 141.695 517.93 140.475 517.31C139.255 516.69 138.315 515.8 137.655 514.64C136.995 513.48 136.665 512.12 136.665 510.56C136.665 509.08 136.975 507.76 137.595 506.6C138.235 505.42 139.115 504.51 140.235 503.87C141.375 503.21 142.655 502.88 144.075 502.88C145.455 502.88 146.665 503.18 147.705 503.78C148.745 504.38 149.545 505.23 150.105 506.33C150.685 507.43 150.975 508.72 150.975 510.2C150.975 510.66 150.865 511.02 150.645 511.28C150.445 511.52 150.145 511.64 149.745 511.64H141.825C141.965 512.6 142.275 513.29 142.755 513.71C143.235 514.13 143.945 514.34 144.885 514.34C145.385 514.34 145.845 514.29 146.265 514.19C146.685 514.07 147.155 513.91 147.675 513.71C147.975 513.59 148.265 513.49 148.545 513.41C148.845 513.31 149.115 513.26 149.355 513.26ZM144.225 506.48C143.525 506.48 142.965 506.71 142.545 507.17C142.125 507.61 141.875 508.26 141.795 509.12H146.505C146.385 507.36 145.625 506.48 144.225 506.48ZM166.52 502.94C167.32 502.94 167.96 503.17 168.44 503.63C168.92 504.07 169.16 504.66 169.16 505.4V516.2C169.16 518.64 168.42 520.49 166.94 521.75C165.48 523.01 163.33 523.64 160.49 523.64C159.39 523.64 158.35 523.54 157.37 523.34C156.39 523.14 155.56 522.85 154.88 522.47C154.52 522.27 154.23 522.01 154.01 521.69C153.81 521.37 153.71 521.01 153.71 520.61C153.71 520.03 153.85 519.56 154.13 519.2C154.43 518.84 154.81 518.66 155.27 518.66C155.63 518.66 156.28 518.81 157.22 519.11C157.84 519.31 158.39 519.46 158.87 519.56C159.35 519.68 159.84 519.74 160.34 519.74C161.56 519.74 162.45 519.48 163.01 518.96C163.59 518.46 163.88 517.66 163.88 516.56V515.42C163.44 516.08 162.81 516.61 161.99 517.01C161.17 517.39 160.28 517.58 159.32 517.58C158.04 517.58 156.9 517.28 155.9 516.68C154.9 516.08 154.12 515.23 153.56 514.13C153 513.01 152.72 511.72 152.72 510.26C152.72 508.8 153 507.51 153.56 506.39C154.12 505.27 154.9 504.41 155.9 503.81C156.9 503.19 158.04 502.88 159.32 502.88C160.3 502.88 161.2 503.08 162.02 503.48C162.84 503.88 163.47 504.43 163.91 505.13C163.95 504.45 164.2 503.92 164.66 503.54C165.14 503.14 165.76 502.94 166.52 502.94ZM160.94 513.59C161.88 513.59 162.61 513.3 163.13 512.72C163.65 512.14 163.91 511.32 163.91 510.26C163.91 509.2 163.65 508.37 163.13 507.77C162.61 507.17 161.88 506.87 160.94 506.87C160.02 506.87 159.3 507.17 158.78 507.77C158.26 508.35 158 509.18 158 510.26C158 511.3 158.26 512.12 158.78 512.72C159.32 513.3 160.04 513.59 160.94 513.59ZM182.207 502.88C183.967 502.88 185.277 503.41 186.137 504.47C186.997 505.51 187.427 507.1 187.427 509.24V515.72C187.427 516.48 187.187 517.08 186.707 517.52C186.227 517.96 185.577 518.18 184.757 518.18C183.937 518.18 183.287 517.96 182.807 517.52C182.327 517.08 182.087 516.48 182.087 515.72V509.48C182.087 508.6 181.927 507.96 181.607 507.56C181.307 507.16 180.847 506.96 180.227 506.96C179.427 506.96 178.787 507.22 178.307 507.74C177.847 508.24 177.617 508.92 177.617 509.78V515.72C177.617 516.48 177.377 517.08 176.897 517.52C176.417 517.96 175.767 518.18 174.947 518.18C174.127 518.18 173.477 517.96 172.997 517.52C172.517 517.08 172.277 516.48 172.277 515.72V505.34C172.277 504.64 172.527 504.07 173.027 503.63C173.527 503.17 174.177 502.94 174.977 502.94C175.737 502.94 176.337 503.15 176.777 503.57C177.237 503.99 177.467 504.54 177.467 505.22C177.987 504.46 178.657 503.88 179.477 503.48C180.297 503.08 181.207 502.88 182.207 502.88ZM197.311 502.88C199.591 502.88 201.271 503.43 202.351 504.53C203.451 505.61 204.001 507.26 204.001 509.48V515.75C204.001 516.51 203.771 517.11 203.311 517.55C202.871 517.97 202.251 518.18 201.451 518.18C200.751 518.18 200.171 517.98 199.711 517.58C199.271 517.18 199.031 516.64 198.991 515.96C198.711 516.68 198.241 517.24 197.581 517.64C196.921 518.04 196.131 518.24 195.211 518.24C194.191 518.24 193.271 518.04 192.451 517.64C191.631 517.22 190.981 516.65 190.501 515.93C190.041 515.19 189.811 514.36 189.811 513.44C189.811 512.38 190.081 511.54 190.621 510.92C191.181 510.28 192.061 509.82 193.261 509.54C194.461 509.26 196.081 509.12 198.121 509.12H198.931V508.76C198.931 508.06 198.771 507.56 198.451 507.26C198.131 506.94 197.591 506.78 196.831 506.78C196.011 506.78 194.811 507.06 193.231 507.62C192.771 507.78 192.381 507.86 192.061 507.86C191.561 507.86 191.161 507.68 190.861 507.32C190.561 506.96 190.411 506.49 190.411 505.91C190.411 505.47 190.501 505.11 190.681 504.83C190.861 504.55 191.151 504.3 191.551 504.08C192.251 503.72 193.131 503.43 194.191 503.21C195.251 502.99 196.291 502.88 197.311 502.88ZM196.471 514.67C197.191 514.67 197.781 514.42 198.241 513.92C198.701 513.4 198.931 512.74 198.931 511.94V511.58H198.451C197.171 511.58 196.261 511.7 195.721 511.94C195.181 512.16 194.911 512.54 194.911 513.08C194.911 513.54 195.051 513.92 195.331 514.22C195.631 514.52 196.011 514.67 196.471 514.67ZM216.924 502.88C218.684 502.88 219.994 503.41 220.854 504.47C221.714 505.51 222.144 507.1 222.144 509.24V515.72C222.144 516.48 221.904 517.08 221.424 517.52C220.944 517.96 220.294 518.18 219.474 518.18C218.654 518.18 218.004 517.96 217.524 517.52C217.044 517.08 216.804 516.48 216.804 515.72V509.48C216.804 508.6 216.644 507.96 216.324 507.56C216.024 507.16 215.564 506.96 214.944 506.96C214.144 506.96 213.504 507.22 213.024 507.74C212.564 508.24 212.334 508.92 212.334 509.78V515.72C212.334 516.48 212.094 517.08 211.614 517.52C211.134 517.96 210.484 518.18 209.664 518.18C208.844 518.18 208.194 517.96 207.714 517.52C207.234 517.08 206.994 516.48 206.994 515.72V505.34C206.994 504.64 207.244 504.07 207.744 503.63C208.244 503.17 208.894 502.94 209.694 502.94C210.454 502.94 211.054 503.15 211.494 503.57C211.954 503.99 212.184 504.54 212.184 505.22C212.704 504.46 213.374 503.88 214.194 503.48C215.014 503.08 215.924 502.88 216.924 502.88ZM233.888 514.37C235.228 514.45 235.898 515.05 235.898 516.17C235.898 516.87 235.628 517.39 235.088 517.73C234.548 518.07 233.778 518.21 232.778 518.15L231.938 518.09C230.138 517.95 228.768 517.41 227.828 516.47C226.908 515.51 226.448 514.18 226.448 512.48V507.17H225.578C223.978 507.17 223.178 506.51 223.178 505.19C223.178 503.89 223.978 503.24 225.578 503.24H226.448V501.29C226.448 500.53 226.688 499.93 227.168 499.49C227.648 499.03 228.298 498.8 229.118 498.8C229.938 498.8 230.588 499.03 231.068 499.49C231.548 499.93 231.788 500.53 231.788 501.29V503.24H233.438C235.038 503.24 235.838 503.89 235.838 505.19C235.838 506.51 235.038 507.17 233.438 507.17H231.788V512.93C231.788 513.31 231.898 513.63 232.118 513.89C232.358 514.15 232.658 514.29 233.018 514.31L233.888 514.37Z" fill="black"/>
<g clip-path="url(#clip2_1_27)">
<path d="M345 506C336.716 506 330 512.268 330 520C330 527.732 336.716 534 345 534C353.284 534 360 527.732 360 520C360 512.268 353.284 506 345 506ZM341.914 529.369L340.588 528.132L349.299 520L340.586 511.87L341.912 510.632L351.951 520L341.914 529.369Z" fill="#53538A"/>
</g>
<path d="M54.32 546.1C54.08 546.1 53.88 546.033 53.72 545.9C53.5733 545.753 53.5 545.553 53.5 545.3V532.6C53.5 532.347 53.5733 532.153 53.72 532.02C53.88 531.873 54.08 531.8 54.32 531.8C54.5467 531.8 54.7333 531.873 54.88 532.02C55.04 532.153 55.12 532.347 55.12 532.6V545.3C55.12 545.553 55.04 545.753 54.88 545.9C54.7333 546.033 54.5467 546.1 54.32 546.1ZM65.6884 543.74C65.8351 543.74 65.9618 543.8 66.0684 543.92C66.1751 544.04 66.2284 544.193 66.2284 544.38C66.2284 544.713 65.9951 545.02 65.5284 545.3C65.0484 545.58 64.5418 545.793 64.0084 545.94C63.4751 546.073 62.9551 546.14 62.4484 546.14C60.9418 546.14 59.7484 545.693 58.8684 544.8C58.0018 543.907 57.5684 542.673 57.5684 541.1C57.5684 540.1 57.7618 539.22 58.1484 538.46C58.5351 537.687 59.0751 537.087 59.7684 536.66C60.4751 536.233 61.2751 536.02 62.1684 536.02C63.4351 536.02 64.4418 536.433 65.1884 537.26C65.9351 538.087 66.3084 539.207 66.3084 540.62C66.3084 540.887 66.2551 541.08 66.1484 541.2C66.0418 541.32 65.8684 541.38 65.6284 541.38H59.1884C59.3084 543.673 60.3951 544.82 62.4484 544.82C62.9684 544.82 63.4151 544.753 63.7884 544.62C64.1618 544.473 64.5618 544.28 64.9884 544.04C65.3351 543.84 65.5684 543.74 65.6884 543.74ZM62.1884 537.28C61.3351 537.28 60.6484 537.547 60.1284 538.08C59.6218 538.613 59.3218 539.367 59.2284 540.34H64.8884C64.8618 539.353 64.6151 538.6 64.1484 538.08C63.6818 537.547 63.0284 537.28 62.1884 537.28ZM72.6753 536.02C75.1153 536.02 76.3353 537.3 76.3353 539.86V545.3C76.3353 545.54 76.262 545.733 76.1153 545.88C75.982 546.027 75.7953 546.1 75.5553 546.1C75.3153 546.1 75.122 546.027 74.9753 545.88C74.8286 545.733 74.7553 545.54 74.7553 545.3V544.34C74.502 544.913 74.1153 545.36 73.5953 545.68C73.0753 545.987 72.4753 546.14 71.7953 546.14C71.1686 546.14 70.5886 546.013 70.0553 545.76C69.5353 545.507 69.122 545.153 68.8153 544.7C68.5086 544.247 68.3553 543.747 68.3553 543.2C68.3553 542.467 68.542 541.9 68.9153 541.5C69.2886 541.087 69.902 540.793 70.7553 540.62C71.6086 540.433 72.7953 540.34 74.3153 540.34H74.7553V539.68C74.7553 538.88 74.5886 538.293 74.2553 537.92C73.9353 537.547 73.4086 537.36 72.6753 537.36C71.7686 537.36 70.8486 537.607 69.9153 538.1C69.5553 538.327 69.302 538.44 69.1553 538.44C68.9953 538.44 68.862 538.38 68.7553 538.26C68.6486 538.14 68.5953 537.987 68.5953 537.8C68.5953 537.613 68.6486 537.453 68.7553 537.32C68.8753 537.173 69.062 537.027 69.3153 536.88C69.782 536.613 70.3086 536.407 70.8953 536.26C71.4953 536.1 72.0886 536.02 72.6753 536.02ZM72.0153 544.86C72.8153 544.86 73.4686 544.593 73.9753 544.06C74.4953 543.513 74.7553 542.813 74.7553 541.96V541.38H74.3953C73.222 541.38 72.3286 541.433 71.7153 541.54C71.102 541.633 70.662 541.8 70.3953 542.04C70.142 542.267 70.0153 542.607 70.0153 543.06C70.0153 543.58 70.202 544.013 70.5753 544.36C70.962 544.693 71.442 544.86 72.0153 544.86ZM84.1208 536.06C84.6808 536.02 84.9608 536.247 84.9608 536.74C84.9608 536.953 84.9008 537.127 84.7808 537.26C84.6608 537.38 84.4541 537.453 84.1608 537.48L83.5608 537.54C82.6674 537.62 82.0008 537.94 81.5608 538.5C81.1341 539.047 80.9208 539.693 80.9208 540.44V545.3C80.9208 545.567 80.8474 545.767 80.7008 545.9C80.5541 546.033 80.3608 546.1 80.1208 546.1C79.8808 546.1 79.6808 546.033 79.5208 545.9C79.3741 545.753 79.3008 545.553 79.3008 545.3V536.86C79.3008 536.607 79.3808 536.413 79.5408 536.28C79.7008 536.133 79.8941 536.06 80.1208 536.06C80.3341 536.06 80.5141 536.133 80.6608 536.28C80.8074 536.413 80.8808 536.6 80.8808 536.84V537.96C81.1608 537.373 81.5541 536.927 82.0608 536.62C82.5808 536.313 83.1741 536.133 83.8408 536.08L84.1208 536.06ZM91.2516 536.02C93.5849 536.02 94.7516 537.307 94.7516 539.88V545.3C94.7516 545.553 94.6782 545.753 94.5316 545.9C94.3982 546.033 94.2049 546.1 93.9516 546.1C93.6982 546.1 93.4982 546.033 93.3516 545.9C93.2049 545.753 93.1316 545.553 93.1316 545.3V539.98C93.1316 539.073 92.9516 538.413 92.5916 538C92.2449 537.587 91.6849 537.38 90.9116 537.38C90.0182 537.38 89.3049 537.653 88.7716 538.2C88.2382 538.747 87.9716 539.487 87.9716 540.42V545.3C87.9716 545.553 87.8982 545.753 87.7516 545.9C87.6182 546.033 87.4249 546.1 87.1716 546.1C86.9182 546.1 86.7182 546.033 86.5716 545.9C86.4249 545.753 86.3516 545.553 86.3516 545.3V536.86C86.3516 536.62 86.4249 536.427 86.5716 536.28C86.7182 536.133 86.9182 536.06 87.1716 536.06C87.4116 536.06 87.5982 536.133 87.7316 536.28C87.8782 536.427 87.9516 536.613 87.9516 536.84V537.86C88.2716 537.26 88.7182 536.807 89.2916 536.5C89.8649 536.18 90.5182 536.02 91.2516 536.02ZM106.855 536.02C109.295 536.02 110.515 537.3 110.515 539.86V545.3C110.515 545.54 110.442 545.733 110.295 545.88C110.162 546.027 109.975 546.1 109.735 546.1C109.495 546.1 109.302 546.027 109.155 545.88C109.008 545.733 108.935 545.54 108.935 545.3V544.34C108.682 544.913 108.295 545.36 107.775 545.68C107.255 545.987 106.655 546.14 105.975 546.14C105.348 546.14 104.768 546.013 104.235 545.76C103.715 545.507 103.302 545.153 102.995 544.7C102.688 544.247 102.535 543.747 102.535 543.2C102.535 542.467 102.722 541.9 103.095 541.5C103.468 541.087 104.082 540.793 104.935 540.62C105.788 540.433 106.975 540.34 108.495 540.34H108.935V539.68C108.935 538.88 108.768 538.293 108.435 537.92C108.115 537.547 107.588 537.36 106.855 537.36C105.948 537.36 105.028 537.607 104.095 538.1C103.735 538.327 103.482 538.44 103.335 538.44C103.175 538.44 103.042 538.38 102.935 538.26C102.828 538.14 102.775 537.987 102.775 537.8C102.775 537.613 102.828 537.453 102.935 537.32C103.055 537.173 103.242 537.027 103.495 536.88C103.962 536.613 104.488 536.407 105.075 536.26C105.675 536.1 106.268 536.02 106.855 536.02ZM106.195 544.86C106.995 544.86 107.648 544.593 108.155 544.06C108.675 543.513 108.935 542.813 108.935 541.96V541.38H108.575C107.402 541.38 106.508 541.433 105.895 541.54C105.282 541.633 104.842 541.8 104.575 542.04C104.322 542.267 104.195 542.607 104.195 543.06C104.195 543.58 104.382 544.013 104.755 544.36C105.142 544.693 105.622 544.86 106.195 544.86ZM118.38 536.02C119.234 536.02 119.987 536.227 120.64 536.64C121.294 537.053 121.8 537.64 122.16 538.4C122.52 539.16 122.7 540.04 122.7 541.04C122.7 542.053 122.52 542.947 122.16 543.72C121.8 544.48 121.294 545.073 120.64 545.5C119.987 545.927 119.234 546.14 118.38 546.14C117.62 546.14 116.954 545.973 116.38 545.64C115.82 545.307 115.394 544.833 115.1 544.22V545.3C115.1 545.54 115.027 545.733 114.88 545.88C114.747 546.027 114.554 546.1 114.3 546.1C114.047 546.1 113.847 546.027 113.7 545.88C113.554 545.733 113.48 545.54 113.48 545.3V532.58C113.48 532.353 113.554 532.167 113.7 532.02C113.847 531.873 114.047 531.8 114.3 531.8C114.554 531.8 114.747 531.873 114.88 532.02C115.027 532.153 115.1 532.34 115.1 532.58V537.94C115.394 537.327 115.82 536.853 116.38 536.52C116.954 536.187 117.62 536.02 118.38 536.02ZM118.06 544.8C119.007 544.8 119.74 544.473 120.26 543.82C120.78 543.153 121.04 542.227 121.04 541.04C121.04 539.88 120.78 538.98 120.26 538.34C119.74 537.7 119.007 537.38 118.06 537.38C117.114 537.38 116.38 537.7 115.86 538.34C115.354 538.98 115.1 539.893 115.1 541.08C115.1 542.267 115.354 543.187 115.86 543.84C116.38 544.48 117.114 544.8 118.06 544.8ZM129.161 546.14C128.241 546.14 127.428 545.933 126.721 545.52C126.028 545.107 125.488 544.52 125.101 543.76C124.728 542.987 124.541 542.093 124.541 541.08C124.541 540.067 124.728 539.18 125.101 538.42C125.488 537.647 126.028 537.053 126.721 536.64C127.428 536.227 128.241 536.02 129.161 536.02C130.081 536.02 130.894 536.227 131.601 536.64C132.308 537.053 132.848 537.647 133.221 538.42C133.608 539.18 133.801 540.067 133.801 541.08C133.801 542.093 133.608 542.987 133.221 543.76C132.848 544.52 132.308 545.107 131.601 545.52C130.894 545.933 130.081 546.14 129.161 546.14ZM129.161 544.8C130.121 544.8 130.854 544.487 131.361 543.86C131.881 543.22 132.141 542.293 132.141 541.08C132.141 539.893 131.881 538.98 131.361 538.34C130.841 537.687 130.108 537.36 129.161 537.36C128.214 537.36 127.481 537.687 126.961 538.34C126.441 538.98 126.181 539.893 126.181 541.08C126.181 542.28 126.434 543.2 126.941 543.84C127.461 544.48 128.201 544.8 129.161 544.8ZM143.615 536.06C143.868 536.06 144.062 536.133 144.195 536.28C144.342 536.427 144.415 536.62 144.415 536.86V545.32C144.415 545.547 144.342 545.733 144.195 545.88C144.062 546.027 143.868 546.1 143.615 546.1C143.375 546.1 143.182 546.033 143.035 545.9C142.902 545.753 142.835 545.567 142.835 545.34V544.34C142.528 544.927 142.095 545.373 141.535 545.68C140.988 545.987 140.368 546.14 139.675 546.14C138.515 546.14 137.642 545.82 137.055 545.18C136.468 544.527 136.175 543.567 136.175 542.3V536.86C136.175 536.62 136.248 536.427 136.395 536.28C136.542 536.133 136.742 536.06 136.995 536.06C137.248 536.06 137.442 536.133 137.575 536.28C137.722 536.427 137.795 536.62 137.795 536.86V542.26C137.795 543.127 137.968 543.767 138.315 544.18C138.662 544.58 139.208 544.78 139.955 544.78C140.808 544.78 141.495 544.507 142.015 543.96C142.535 543.4 142.795 542.667 142.795 541.76V536.86C142.795 536.62 142.868 536.427 143.015 536.28C143.162 536.133 143.362 536.06 143.615 536.06ZM151.926 544.82C152.392 544.86 152.626 545.073 152.626 545.46C152.626 545.687 152.539 545.86 152.366 545.98C152.206 546.087 151.959 546.127 151.626 546.1L151.086 546.06C150.019 545.98 149.232 545.66 148.726 545.1C148.219 544.54 147.966 543.693 147.966 542.56V537.54H146.626C146.399 537.54 146.219 537.487 146.086 537.38C145.966 537.26 145.906 537.107 145.906 536.92C145.906 536.72 145.966 536.56 146.086 536.44C146.219 536.32 146.399 536.26 146.626 536.26H147.966V534C147.966 533.747 148.039 533.553 148.186 533.42C148.332 533.273 148.532 533.2 148.786 533.2C149.026 533.2 149.219 533.273 149.366 533.42C149.512 533.553 149.586 533.747 149.586 534V536.26H151.806C152.019 536.26 152.186 536.32 152.306 536.44C152.439 536.56 152.506 536.72 152.506 536.92C152.506 537.107 152.439 537.26 152.306 537.38C152.186 537.487 152.019 537.54 151.806 537.54H149.586V542.64C149.586 543.373 149.732 543.907 150.026 544.24C150.332 544.56 150.786 544.74 151.386 544.78L151.926 544.82ZM164.199 536.06C164.759 536.02 165.039 536.247 165.039 536.74C165.039 536.953 164.979 537.127 164.859 537.26C164.739 537.38 164.532 537.453 164.239 537.48L163.639 537.54C162.746 537.62 162.079 537.94 161.639 538.5C161.212 539.047 160.999 539.693 160.999 540.44V545.3C160.999 545.567 160.926 545.767 160.779 545.9C160.632 546.033 160.439 546.1 160.199 546.1C159.959 546.1 159.759 546.033 159.599 545.9C159.452 545.753 159.379 545.553 159.379 545.3V536.86C159.379 536.607 159.459 536.413 159.619 536.28C159.779 536.133 159.972 536.06 160.199 536.06C160.412 536.06 160.592 536.133 160.739 536.28C160.886 536.413 160.959 536.6 160.959 536.84V537.96C161.239 537.373 161.632 536.927 162.139 536.62C162.659 536.313 163.252 536.133 163.919 536.08L164.199 536.06ZM173.774 543.74C173.921 543.74 174.048 543.8 174.154 543.92C174.261 544.04 174.314 544.193 174.314 544.38C174.314 544.713 174.081 545.02 173.614 545.3C173.134 545.58 172.628 545.793 172.094 545.94C171.561 546.073 171.041 546.14 170.534 546.14C169.028 546.14 167.834 545.693 166.954 544.8C166.088 543.907 165.654 542.673 165.654 541.1C165.654 540.1 165.848 539.22 166.234 538.46C166.621 537.687 167.161 537.087 167.854 536.66C168.561 536.233 169.361 536.02 170.254 536.02C171.521 536.02 172.528 536.433 173.274 537.26C174.021 538.087 174.394 539.207 174.394 540.62C174.394 540.887 174.341 541.08 174.234 541.2C174.128 541.32 173.954 541.38 173.714 541.38H167.274C167.394 543.673 168.481 544.82 170.534 544.82C171.054 544.82 171.501 544.753 171.874 544.62C172.248 544.473 172.648 544.28 173.074 544.04C173.421 543.84 173.654 543.74 173.774 543.74ZM170.274 537.28C169.421 537.28 168.734 537.547 168.214 538.08C167.708 538.613 167.408 539.367 167.314 540.34H172.974C172.948 539.353 172.701 538.6 172.234 538.08C171.768 537.547 171.114 537.28 170.274 537.28ZM181.681 536.02C182.535 536.02 183.288 536.233 183.941 536.66C184.595 537.087 185.101 537.687 185.461 538.46C185.821 539.22 186.001 540.107 186.001 541.12C186.001 542.133 185.821 543.02 185.461 543.78C185.101 544.527 184.595 545.107 183.941 545.52C183.301 545.933 182.548 546.14 181.681 546.14C180.921 546.14 180.255 545.973 179.681 545.64C179.121 545.307 178.695 544.833 178.401 544.22V548.92C178.401 549.16 178.328 549.347 178.181 549.48C178.048 549.627 177.855 549.7 177.601 549.7C177.348 549.7 177.148 549.627 177.001 549.48C176.855 549.333 176.781 549.147 176.781 548.92V536.86C176.781 536.62 176.855 536.427 177.001 536.28C177.148 536.133 177.348 536.06 177.601 536.06C177.855 536.06 178.048 536.133 178.181 536.28C178.328 536.427 178.401 536.62 178.401 536.86V537.94C178.695 537.327 179.121 536.853 179.681 536.52C180.255 536.187 180.921 536.02 181.681 536.02ZM181.361 544.8C182.308 544.8 183.041 544.48 183.561 543.84C184.081 543.2 184.341 542.293 184.341 541.12C184.341 539.947 184.081 539.033 183.561 538.38C183.041 537.713 182.308 537.38 181.361 537.38C180.415 537.38 179.681 537.7 179.161 538.34C178.655 538.98 178.401 539.893 178.401 541.08C178.401 542.267 178.655 543.187 179.161 543.84C179.681 544.48 180.415 544.8 181.361 544.8ZM193.242 536.06C193.802 536.02 194.082 536.247 194.082 536.74C194.082 536.953 194.022 537.127 193.902 537.26C193.782 537.38 193.575 537.453 193.282 537.48L192.682 537.54C191.789 537.62 191.122 537.94 190.682 538.5C190.255 539.047 190.042 539.693 190.042 540.44V545.3C190.042 545.567 189.969 545.767 189.822 545.9C189.675 546.033 189.482 546.1 189.242 546.1C189.002 546.1 188.802 546.033 188.642 545.9C188.495 545.753 188.422 545.553 188.422 545.3V536.86C188.422 536.607 188.502 536.413 188.662 536.28C188.822 536.133 189.015 536.06 189.242 536.06C189.455 536.06 189.635 536.133 189.782 536.28C189.929 536.413 190.002 536.6 190.002 536.84V537.96C190.282 537.373 190.675 536.927 191.182 536.62C191.702 536.313 192.295 536.133 192.962 536.08L193.242 536.06ZM199.317 546.14C198.397 546.14 197.584 545.933 196.877 545.52C196.184 545.107 195.644 544.52 195.257 543.76C194.884 542.987 194.697 542.093 194.697 541.08C194.697 540.067 194.884 539.18 195.257 538.42C195.644 537.647 196.184 537.053 196.877 536.64C197.584 536.227 198.397 536.02 199.317 536.02C200.237 536.02 201.051 536.227 201.757 536.64C202.464 537.053 203.004 537.647 203.377 538.42C203.764 539.18 203.957 540.067 203.957 541.08C203.957 542.093 203.764 542.987 203.377 543.76C203.004 544.52 202.464 545.107 201.757 545.52C201.051 545.933 200.237 546.14 199.317 546.14ZM199.317 544.8C200.277 544.8 201.011 544.487 201.517 543.86C202.037 543.22 202.297 542.293 202.297 541.08C202.297 539.893 202.037 538.98 201.517 538.34C200.997 537.687 200.264 537.36 199.317 537.36C198.371 537.36 197.637 537.687 197.117 538.34C196.597 538.98 196.337 539.893 196.337 541.08C196.337 542.28 196.591 543.2 197.097 543.84C197.617 544.48 198.357 544.8 199.317 544.8ZM214.191 531.8C214.444 531.8 214.644 531.873 214.791 532.02C214.938 532.167 215.011 532.353 215.011 532.58V545.3C215.011 545.54 214.938 545.733 214.791 545.88C214.644 546.027 214.444 546.1 214.191 546.1C213.938 546.1 213.738 546.027 213.591 545.88C213.458 545.733 213.391 545.54 213.391 545.3V544.22C213.098 544.833 212.664 545.307 212.091 545.64C211.531 545.973 210.871 546.14 210.111 546.14C209.258 546.14 208.504 545.927 207.851 545.5C207.198 545.073 206.691 544.48 206.331 543.72C205.971 542.947 205.791 542.053 205.791 541.04C205.791 540.04 205.971 539.16 206.331 538.4C206.691 537.64 207.198 537.053 207.851 536.64C208.504 536.227 209.258 536.02 210.111 536.02C210.871 536.02 211.531 536.187 212.091 536.52C212.664 536.853 213.098 537.327 213.391 537.94V532.58C213.391 532.34 213.458 532.153 213.591 532.02C213.738 531.873 213.938 531.8 214.191 531.8ZM210.431 544.8C211.378 544.8 212.104 544.48 212.611 543.84C213.131 543.187 213.391 542.267 213.391 541.08C213.391 539.893 213.131 538.98 212.611 538.34C212.104 537.7 211.378 537.38 210.431 537.38C209.484 537.38 208.744 537.7 208.211 538.34C207.691 538.98 207.431 539.88 207.431 541.04C207.431 542.227 207.691 543.153 208.211 543.82C208.744 544.473 209.484 544.8 210.431 544.8ZM225.412 536.06C225.665 536.06 225.858 536.133 225.992 536.28C226.138 536.427 226.212 536.62 226.212 536.86V545.32C226.212 545.547 226.138 545.733 225.992 545.88C225.858 546.027 225.665 546.1 225.412 546.1C225.172 546.1 224.978 546.033 224.832 545.9C224.698 545.753 224.632 545.567 224.632 545.34V544.34C224.325 544.927 223.892 545.373 223.332 545.68C222.785 545.987 222.165 546.14 221.472 546.14C220.312 546.14 219.438 545.82 218.852 545.18C218.265 544.527 217.972 543.567 217.972 542.3V536.86C217.972 536.62 218.045 536.427 218.192 536.28C218.338 536.133 218.538 536.06 218.792 536.06C219.045 536.06 219.238 536.133 219.372 536.28C219.518 536.427 219.592 536.62 219.592 536.86V542.26C219.592 543.127 219.765 543.767 220.112 544.18C220.458 544.58 221.005 544.78 221.752 544.78C222.605 544.78 223.292 544.507 223.812 543.96C224.332 543.4 224.592 542.667 224.592 541.76V536.86C224.592 536.62 224.665 536.427 224.812 536.28C224.958 536.133 225.158 536.06 225.412 536.06ZM233.243 546.14C232.336 546.14 231.529 545.933 230.823 545.52C230.129 545.107 229.589 544.52 229.203 543.76C228.829 543 228.643 542.12 228.643 541.12C228.643 540.12 228.836 539.233 229.223 538.46C229.623 537.687 230.176 537.087 230.883 536.66C231.589 536.233 232.403 536.02 233.323 536.02C233.829 536.02 234.329 536.093 234.823 536.24C235.329 536.373 235.769 536.573 236.143 536.84C236.383 537 236.549 537.16 236.643 537.32C236.749 537.467 236.803 537.633 236.803 537.82C236.803 538.007 236.749 538.16 236.643 538.28C236.549 538.4 236.423 538.46 236.263 538.46C236.169 538.46 236.069 538.433 235.963 538.38C235.856 538.327 235.763 538.273 235.683 538.22C235.616 538.167 235.569 538.133 235.543 538.12C235.196 537.893 234.863 537.713 234.543 537.58C234.236 537.447 233.856 537.38 233.403 537.38C232.429 537.38 231.669 537.713 231.123 538.38C230.589 539.033 230.323 539.947 230.323 541.12C230.323 542.293 230.589 543.2 231.123 543.84C231.669 544.48 232.429 544.8 233.403 544.8C233.856 544.8 234.243 544.733 234.563 544.6C234.896 544.467 235.229 544.287 235.563 544.06C235.709 543.967 235.849 543.887 235.983 543.82C236.116 543.753 236.229 543.72 236.323 543.72C236.469 543.72 236.589 543.78 236.683 543.9C236.789 544.02 236.843 544.173 236.843 544.36C236.843 544.533 236.796 544.693 236.703 544.84C236.609 544.973 236.436 545.127 236.183 545.3C235.809 545.553 235.356 545.76 234.823 545.92C234.303 546.067 233.776 546.14 233.243 546.14ZM243.313 544.82C243.779 544.86 244.013 545.073 244.013 545.46C244.013 545.687 243.926 545.86 243.753 545.98C243.593 546.087 243.346 546.127 243.013 546.1L242.473 546.06C241.406 545.98 240.619 545.66 240.113 545.1C239.606 544.54 239.353 543.693 239.353 542.56V537.54H238.013C237.786 537.54 237.606 537.487 237.473 537.38C237.353 537.26 237.292 537.107 237.292 536.92C237.292 536.72 237.353 536.56 237.473 536.44C237.606 536.32 237.786 536.26 238.013 536.26H239.353V534C239.353 533.747 239.426 533.553 239.573 533.42C239.719 533.273 239.919 533.2 240.173 533.2C240.413 533.2 240.606 533.273 240.753 533.42C240.899 533.553 240.973 533.747 240.973 534V536.26H243.192C243.406 536.26 243.573 536.32 243.693 536.44C243.826 536.56 243.893 536.72 243.893 536.92C243.893 537.107 243.826 537.26 243.693 537.38C243.573 537.487 243.406 537.54 243.192 537.54H240.973V542.64C240.973 543.373 241.119 543.907 241.413 544.24C241.719 544.56 242.173 544.74 242.773 544.78L243.313 544.82ZM246.429 546.1C246.189 546.1 245.989 546.033 245.829 545.9C245.683 545.753 245.609 545.553 245.609 545.3V536.86C245.609 536.607 245.683 536.413 245.829 536.28C245.989 536.133 246.189 536.06 246.429 536.06C246.669 536.06 246.863 536.133 247.009 536.28C247.156 536.413 247.229 536.607 247.229 536.86V545.3C247.229 545.567 247.156 545.767 247.009 545.9C246.863 546.033 246.669 546.1 246.429 546.1ZM246.429 533.96C246.109 533.96 245.849 533.867 245.649 533.68C245.449 533.493 245.349 533.247 245.349 532.94C245.349 532.647 245.449 532.407 245.649 532.22C245.849 532.033 246.109 531.94 246.429 531.94C246.749 531.94 247.009 532.033 247.209 532.22C247.409 532.407 247.509 532.647 247.509 532.94C247.509 533.247 247.409 533.493 247.209 533.68C247.009 533.867 246.749 533.96 246.429 533.96ZM257.278 536.56C257.424 536.24 257.658 536.08 257.978 536.08C258.178 536.08 258.358 536.147 258.518 536.28C258.678 536.413 258.758 536.58 258.758 536.78C258.758 536.9 258.731 537.007 258.678 537.1L254.778 545.5C254.698 545.673 254.578 545.813 254.418 545.92C254.258 546.013 254.084 546.06 253.898 546.06C253.724 546.06 253.558 546.013 253.398 545.92C253.238 545.813 253.111 545.673 253.018 545.5L249.138 537.1C249.084 537.007 249.058 536.907 249.058 536.8C249.058 536.6 249.144 536.427 249.318 536.28C249.504 536.133 249.704 536.06 249.918 536.06C250.051 536.06 250.178 536.1 250.298 536.18C250.431 536.26 250.531 536.373 250.598 536.52L253.938 544.02L257.278 536.56ZM267.954 543.74C268.101 543.74 268.227 543.8 268.334 543.92C268.441 544.04 268.494 544.193 268.494 544.38C268.494 544.713 268.261 545.02 267.794 545.3C267.314 545.58 266.807 545.793 266.274 545.94C265.741 546.073 265.221 546.14 264.714 546.14C263.207 546.14 262.014 545.693 261.134 544.8C260.267 543.907 259.834 542.673 259.834 541.1C259.834 540.1 260.027 539.22 260.414 538.46C260.801 537.687 261.341 537.087 262.034 536.66C262.741 536.233 263.541 536.02 264.434 536.02C265.701 536.02 266.707 536.433 267.454 537.26C268.201 538.087 268.574 539.207 268.574 540.62C268.574 540.887 268.521 541.08 268.414 541.2C268.307 541.32 268.134 541.38 267.894 541.38H261.454C261.574 543.673 262.661 544.82 264.714 544.82C265.234 544.82 265.681 544.753 266.054 544.62C266.427 544.473 266.827 544.28 267.254 544.04C267.601 543.84 267.834 543.74 267.954 543.74ZM264.454 537.28C263.601 537.28 262.914 537.547 262.394 538.08C261.887 538.613 261.587 539.367 261.494 540.34H267.154C267.127 539.353 266.881 538.6 266.414 538.08C265.947 537.547 265.294 537.28 264.454 537.28ZM281.037 536.02C282.184 536.02 283.051 536.347 283.637 537C284.224 537.64 284.517 538.6 284.517 539.88V545.3C284.517 545.553 284.444 545.753 284.297 545.9C284.151 546.033 283.957 546.1 283.717 546.1C283.464 546.1 283.264 546.033 283.117 545.9C282.971 545.753 282.897 545.553 282.897 545.3V539.92C282.897 539.053 282.717 538.413 282.357 538C282.011 537.587 281.451 537.38 280.677 537.38C279.784 537.38 279.071 537.653 278.537 538.2C278.004 538.747 277.737 539.487 277.737 540.42V545.3C277.737 545.553 277.664 545.753 277.517 545.9C277.384 546.033 277.191 546.1 276.937 546.1C276.684 546.1 276.484 546.033 276.337 545.9C276.191 545.753 276.117 545.553 276.117 545.3V532.58C276.117 532.353 276.191 532.167 276.337 532.02C276.497 531.873 276.697 531.8 276.937 531.8C277.191 531.8 277.384 531.873 277.517 532.02C277.664 532.153 277.737 532.34 277.737 532.58V537.82C278.057 537.233 278.504 536.787 279.077 536.48C279.651 536.173 280.304 536.02 281.037 536.02ZM295.024 543.74C295.171 543.74 295.298 543.8 295.404 543.92C295.511 544.04 295.564 544.193 295.564 544.38C295.564 544.713 295.331 545.02 294.864 545.3C294.384 545.58 293.878 545.793 293.344 545.94C292.811 546.073 292.291 546.14 291.784 546.14C290.278 546.14 289.084 545.693 288.204 544.8C287.338 543.907 286.904 542.673 286.904 541.1C286.904 540.1 287.098 539.22 287.484 538.46C287.871 537.687 288.411 537.087 289.104 536.66C289.811 536.233 290.611 536.02 291.504 536.02C292.771 536.02 293.778 536.433 294.524 537.26C295.271 538.087 295.644 539.207 295.644 540.62C295.644 540.887 295.591 541.08 295.484 541.2C295.378 541.32 295.204 541.38 294.964 541.38H288.524C288.644 543.673 289.731 544.82 291.784 544.82C292.304 544.82 292.751 544.753 293.124 544.62C293.498 544.473 293.898 544.28 294.324 544.04C294.671 543.84 294.904 543.74 295.024 543.74ZM291.524 537.28C290.671 537.28 289.984 537.547 289.464 538.08C288.958 538.613 288.658 539.367 288.564 540.34H294.224C294.198 539.353 293.951 538.6 293.484 538.08C293.018 537.547 292.364 537.28 291.524 537.28ZM302.011 536.02C304.451 536.02 305.671 537.3 305.671 539.86V545.3C305.671 545.54 305.598 545.733 305.451 545.88C305.318 546.027 305.131 546.1 304.891 546.1C304.651 546.1 304.458 546.027 304.311 545.88C304.165 545.733 304.091 545.54 304.091 545.3V544.34C303.838 544.913 303.451 545.36 302.931 545.68C302.411 545.987 301.811 546.14 301.131 546.14C300.505 546.14 299.925 546.013 299.391 545.76C298.871 545.507 298.458 545.153 298.151 544.7C297.845 544.247 297.691 543.747 297.691 543.2C297.691 542.467 297.878 541.9 298.251 541.5C298.625 541.087 299.238 540.793 300.091 540.62C300.945 540.433 302.131 540.34 303.651 540.34H304.091V539.68C304.091 538.88 303.925 538.293 303.591 537.92C303.271 537.547 302.745 537.36 302.011 537.36C301.105 537.36 300.185 537.607 299.251 538.1C298.891 538.327 298.638 538.44 298.491 538.44C298.331 538.44 298.198 538.38 298.091 538.26C297.985 538.14 297.931 537.987 297.931 537.8C297.931 537.613 297.985 537.453 298.091 537.32C298.211 537.173 298.398 537.027 298.651 536.88C299.118 536.613 299.645 536.407 300.231 536.26C300.831 536.1 301.425 536.02 302.011 536.02ZM301.351 544.86C302.151 544.86 302.805 544.593 303.311 544.06C303.831 543.513 304.091 542.813 304.091 541.96V541.38H303.731C302.558 541.38 301.665 541.433 301.051 541.54C300.438 541.633 299.998 541.8 299.731 542.04C299.478 542.267 299.351 542.607 299.351 543.06C299.351 543.58 299.538 544.013 299.911 544.36C300.298 544.693 300.778 544.86 301.351 544.86ZM309.457 546.1C309.217 546.1 309.017 546.033 308.857 545.9C308.71 545.753 308.637 545.553 308.637 545.3V532.6C308.637 532.347 308.71 532.153 308.857 532.02C309.017 531.873 309.217 531.8 309.457 531.8C309.683 531.8 309.87 531.873 310.017 532.02C310.177 532.153 310.257 532.347 310.257 532.6V545.3C310.257 545.553 310.177 545.753 310.017 545.9C309.87 546.033 309.683 546.1 309.457 546.1ZM317.941 544.82C318.408 544.86 318.641 545.073 318.641 545.46C318.641 545.687 318.555 545.86 318.381 545.98C318.221 546.087 317.975 546.127 317.641 546.1L317.101 546.06C316.035 545.98 315.248 545.66 314.741 545.1C314.235 544.54 313.981 543.693 313.981 542.56V537.54H312.641C312.415 537.54 312.235 537.487 312.101 537.38C311.981 537.26 311.921 537.107 311.921 536.92C311.921 536.72 311.981 536.56 312.101 536.44C312.235 536.32 312.415 536.26 312.641 536.26H313.981V534C313.981 533.747 314.055 533.553 314.201 533.42C314.348 533.273 314.548 533.2 314.801 533.2C315.041 533.2 315.235 533.273 315.381 533.42C315.528 533.553 315.601 533.747 315.601 534V536.26H317.821C318.035 536.26 318.201 536.32 318.321 536.44C318.455 536.56 318.521 536.72 318.521 536.92C318.521 537.107 318.455 537.26 318.321 537.38C318.201 537.487 318.035 537.54 317.821 537.54H315.601V542.64C315.601 543.373 315.748 543.907 316.041 544.24C316.348 544.56 316.801 544.74 317.401 544.78L317.941 544.82ZM325.158 536.02C326.305 536.02 327.172 536.347 327.758 537C328.345 537.64 328.638 538.6 328.638 539.88V545.3C328.638 545.553 328.565 545.753 328.418 545.9C328.272 546.033 328.078 546.1 327.838 546.1C327.585 546.1 327.385 546.033 327.238 545.9C327.092 545.753 327.018 545.553 327.018 545.3V539.92C327.018 539.053 326.838 538.413 326.478 538C326.132 537.587 325.572 537.38 324.798 537.38C323.905 537.38 323.192 537.653 322.658 538.2C322.125 538.747 321.858 539.487 321.858 540.42V545.3C321.858 545.553 321.785 545.753 321.638 545.9C321.505 546.033 321.312 546.1 321.058 546.1C320.805 546.1 320.605 546.033 320.458 545.9C320.312 545.753 320.238 545.553 320.238 545.3V532.58C320.238 532.353 320.312 532.167 320.458 532.02C320.618 531.873 320.818 531.8 321.058 531.8C321.312 531.8 321.505 531.873 321.638 532.02C321.785 532.153 321.858 532.34 321.858 532.58V537.82C322.178 537.233 322.625 536.787 323.198 536.48C323.772 536.173 324.425 536.02 325.158 536.02Z" fill="black"/>
<path d="M133.427 77.7642C188.33 54.4248 157.721 22.8938 209.873 -5.32697L-12.6237 -6.52004L-13.6853 191.477C19.446 182.655 5.97261 162.082 19.7598 124.123C40.0555 68.2457 64.7972 106.938 133.427 77.7642Z" fill="#FBBEBE"/>
<path d="M200.122 661.589C192.595 640.295 151.664 619.702 125.128 624.779C94.7454 636.203 46.2104 660.827 76.6697 723.785C94.3607 743.248 141.973 777.604 172.432 749.172C210.506 713.631 208.199 684.437 200.122 661.589Z" fill="#EDF0FF"/>
<path d="M202.738 641.689C199.247 631.668 180.265 621.977 167.958 624.367C153.867 629.743 131.358 641.331 145.485 670.958C153.689 680.117 175.77 696.284 189.896 682.904C207.554 666.179 206.483 652.441 202.738 641.689Z" stroke="#FF9898"/>
<path d="M345.967 856C333.167 772.4 385.967 729.167 413.967 718V895.5C367.167 899.5 349.134 870.833 345.967 856Z" fill="#FBBEBE"/>
</g>
<defs>
<clipPath id="clip0_1_27">
<rect width="414" height="896" fill="white"/>
</clipPath>
<clipPath id="clip1_1_27">
<rect width="30" height="28" fill="white" transform="translate(330 302)"/>
</clipPath>
<clipPath id="clip2_1_27">
<rect width="30" height="28" fill="white" transform="translate(330 506)"/>
</clipPath>
</defs>
</svg>
